<?xml version="1.0" standalone="no"?>
<!DOCTYPE svg PUBLIC "-//W3C//DTD SVG 20010904//EN"
 "http://www.w3.org/TR/2001/REC-SVG-20010904/DTD/svg10.dtd">
<svg version="1.0" xmlns="http://www.w3.org/2000/svg"
 width="2160.000000pt" height="2160.000000pt" viewBox="0 0 2160.000000 2160.000000"
 preserveAspectRatio="xMidYMid meet">
<metadata>
Created by potrace 1.14, written by Peter Selinger 2001-2017
</metadata>
<g transform="translate(0.000000,2160.000000) scale(0.100000,-0.100000)"
fill="#000000" stroke="none">
<path d="M10274 21475 c-3 -8 1 -24 10 -37 9 -12 16 -19 16 -15 0 13 134 -115
195 -187 22 -26 57 -64 78 -86 20 -22 37 -45 37 -50 0 -6 5 -10 10 -10 6 0 10
-7 10 -15 0 -8 5 -15 10 -15 6 0 16 -12 23 -27 6 -16 20 -37 29 -47 10 -11 18
-26 18 -33 0 -7 4 -13 9 -13 5 0 15 -16 22 -35 7 -19 17 -35 23 -35 5 0 7 -3
3 -6 -3 -4 1 -13 9 -21 8 -8 12 -19 9 -24 -4 -5 -2 -9 3 -9 5 0 22 -30 38 -67
16 -38 31 -70 34 -73 3 -3 5 -12 5 -20 0 -8 3 -18 7 -21 8 -5 19 -40 20 -66 1
-7 5 -13 8 -13 7 0 12 -18 26 -79 1 -8 6 -17 11 -20 4 -3 10 -22 11 -41 2 -19
7 -37 11 -40 4 -3 6 -14 6 -25 0 -11 3 -25 8 -31 4 -7 7 -16 6 -20 -1 -5 0
-11 1 -14 4 -11 10 -47 13 -72 1 -16 6 -28 11 -28 4 0 6 -9 3 -20 -3 -11 -2
-22 2 -25 7 -4 9 -17 14 -97 1 -16 6 -28 12 -28 5 0 3 -5 -5 -10 -8 -5 -10
-10 -4 -10 6 0 10 -10 9 -22 -1 -13 2 -29 8 -35 6 -9 6 -13 -2 -13 -8 0 -9 -6
-2 -18 6 -11 6 -24 0 -35 -7 -12 -6 -17 3 -17 8 0 9 -3 3 -8 -5 -4 -10 -14
-10 -22 0 -8 5 -18 10 -22 7 -5 6 -8 0 -8 -6 0 -11 -23 -10 -55 0 -30 -3 -55
-8 -55 -4 0 -3 -9 3 -20 6 -11 7 -20 2 -20 -5 0 -8 -13 -7 -30 1 -16 0 -30 -4
-30 -3 0 -7 -17 -9 -37 -1 -20 -7 -42 -13 -50 -6 -7 -9 -13 -6 -13 3 0 1 -15
-4 -32 -16 -51 -20 -71 -23 -101 -2 -16 -11 -37 -20 -48 -8 -10 -11 -19 -6
-19 10 0 5 -9 -27 -45 -7 -7 -13 -18 -13 -24 0 -5 -10 -17 -22 -25 -12 -9 -18
-16 -13 -16 6 0 3 -6 -5 -13 -8 -7 -39 -42 -68 -79 -30 -38 -58 -68 -63 -68
-5 0 -9 -6 -9 -12 0 -7 -12 -24 -25 -37 -14 -13 -25 -27 -25 -32 0 -5 -7 -9
-16 -9 -8 0 -13 -3 -10 -8 2 -4 -22 -36 -54 -70 -32 -35 -60 -66 -61 -70 -2
-7 -33 -42 -76 -88 -13 -13 -23 -26 -23 -29 0 -5 -38 -51 -72 -87 -10 -10 -15
-18 -10 -18 4 -1 -3 -9 -15 -19 -12 -10 -19 -21 -16 -25 4 -3 1 -6 -5 -6 -6 0
-13 -8 -16 -17 -3 -10 -19 -34 -36 -53 -17 -19 -33 -43 -36 -52 -3 -10 -10
-18 -16 -18 -6 0 -8 -3 -5 -7 4 -3 -5 -21 -19 -40 -14 -18 -21 -33 -17 -33 4
0 3 -4 -2 -8 -14 -9 -65 -118 -65 -137 0 -8 -4 -15 -8 -15 -4 0 -9 -9 -10 -20
-1 -11 -3 -29 -4 -40 -1 -11 -6 -20 -11 -20 -5 0 -7 -10 -4 -22 4 -12 2 -27
-3 -33 -5 -5 -10 -28 -12 -50 -2 -22 -7 -46 -12 -53 -4 -7 -2 -12 4 -12 6 0 8
-4 5 -10 -12 -20 -14 -50 -2 -50 8 0 8 -3 0 -11 -8 -8 -8 -20 -2 -36 5 -13 5
-22 1 -19 -11 7 -9 -48 3 -56 6 -5 4 -12 -5 -18 -9 -6 -10 -10 -3 -10 6 0 12
-8 11 -17 0 -10 3 -43 7 -73 4 -30 8 -67 9 -82 0 -14 4 -24 9 -21 4 2 7 -4 8
-14 0 -10 2 -25 4 -33 2 -8 7 -28 10 -45 3 -16 12 -36 18 -44 9 -12 9 -13 0
-7 -8 4 -5 -11 7 -39 11 -26 18 -51 15 -55 -3 -5 -1 -10 4 -12 5 -1 11 -14 13
-28 1 -14 5 -27 8 -30 7 -7 42 -103 43 -117 0 -7 4 -13 9 -13 4 0 7 -3 6 -7
-2 -10 22 -74 43 -115 5 -10 9 -25 9 -33 0 -8 5 -15 11 -15 5 0 8 -4 4 -9 -3
-5 1 -15 8 -23 8 -7 12 -18 10 -24 -2 -7 3 -19 12 -27 8 -9 15 -22 15 -31 0
-8 5 -18 10 -21 6 -3 10 -15 10 -26 0 -10 5 -19 11 -19 5 0 7 -5 4 -10 -3 -6
1 -13 9 -16 9 -3 13 -10 10 -15 -3 -5 0 -9 6 -9 6 0 8 -4 5 -10 -3 -5 -2 -10
3 -10 5 0 15 -12 23 -27 8 -16 35 -50 61 -77 27 -26 48 -50 48 -53 0 -5 24
-35 105 -132 11 -13 32 -36 47 -51 15 -15 24 -30 21 -34 -4 -3 -1 -6 5 -6 6 0
35 -25 64 -56 29 -31 110 -114 180 -185 69 -71 125 -129 124 -129 -2 0 32 -36
75 -80 43 -44 76 -80 74 -80 -2 0 8 -13 23 -29 38 -40 96 -112 101 -125 2 -6
12 -18 22 -27 10 -9 16 -19 12 -23 -3 -3 -2 -6 4 -6 6 0 16 -13 23 -30 7 -16
17 -30 22 -30 5 0 6 -4 3 -10 -3 -5 -3 -10 2 -10 4 0 17 -18 27 -40 11 -22 23
-40 28 -40 5 0 7 -4 4 -9 -3 -4 4 -25 14 -47 11 -21 20 -44 20 -51 0 -7 5 -13
10 -13 6 0 10 -5 10 -11 0 -5 -6 -7 -12 -4 -7 4 -5 0 4 -8 10 -8 15 -17 12
-20 -3 -3 -2 -12 2 -19 10 -16 14 -32 17 -75 1 -18 4 -33 7 -33 7 0 8 -12 12
-153 2 -73 -1 -117 -7 -117 -5 0 -3 -5 5 -10 10 -7 11 -10 2 -10 -8 0 -11 -9
-8 -25 3 -13 1 -27 -4 -30 -5 -3 -9 -13 -9 -23 -1 -21 -8 -76 -11 -79 -1 -2
-4 -7 -5 -13 -1 -5 -3 -11 -5 -12 -1 -3 -4 -11 -13 -50 -2 -7 -8 -23 -15 -35
-7 -12 -13 -30 -15 -40 -1 -10 -5 -22 -9 -28 -3 -5 -15 -26 -26 -46 -43 -76
-47 -84 -62 -99 -8 -8 -28 -33 -44 -55 -47 -64 -168 -179 -209 -198 -20 -10
-37 -22 -37 -28 0 -6 -5 -7 -10 -4 -6 4 -16 2 -23 -3 -20 -17 -90 -38 -119
-37 -15 1 -25 -1 -23 -5 2 -3 -32 -6 -76 -6 -43 -1 -79 2 -79 5 0 3 -16 7 -37
8 -20 1 -41 7 -47 13 -5 5 -18 10 -28 10 -10 0 -18 5 -18 11 0 6 -6 9 -12 7
-7 -3 -19 1 -26 9 -8 7 -18 11 -23 8 -5 -4 -9 -1 -9 5 0 6 -4 8 -10 5 -5 -3
-10 -3 -10 2 0 4 -12 14 -27 20 -16 7 -41 24 -57 38 -16 14 -33 25 -38 25 -4
0 -8 7 -8 15 0 8 -7 15 -15 15 -8 0 -15 7 -15 15 0 8 -4 15 -8 15 -7 0 -45 57
-47 70 -1 3 -13 30 -27 60 -26 53 -36 79 -35 90 0 3 -5 15 -11 26 -6 12 -14
34 -17 50 -2 16 -7 40 -10 54 -6 30 -17 111 -16 125 1 44 15 125 30 173 14 45
80 162 91 162 6 0 10 6 10 13 0 13 130 143 140 140 3 -1 13 6 23 15 34 30 166
89 177 78 7 -7 10 -7 10 1 0 5 12 9 28 6 15 -2 36 -5 48 -6 23 -4 77 -38 110
-71 37 -37 109 -152 121 -193 1 -7 5 -19 6 -25 2 -7 7 -20 10 -28 4 -8 8 -29
10 -45 2 -17 7 -36 11 -43 4 -7 2 -12 -6 -12 -8 0 -9 -3 -3 -8 9 -6 11 -27 5
-42 -1 -4 -6 -42 -11 -100 -1 -8 -6 -21 -12 -27 -5 -7 -7 -13 -3 -13 11 0 -23
-58 -46 -80 -12 -11 -18 -20 -12 -20 5 -1 -2 -7 -16 -14 -14 -8 -28 -12 -32
-10 -5 3 -8 1 -8 -3 0 -9 -36 -15 -102 -17 -21 0 -38 -4 -38 -8 0 -5 -6 -8
-13 -8 -25 0 -14 -30 12 -36 14 -3 34 -9 43 -14 11 -6 19 -6 23 1 4 5 12 6 18
2 11 -7 33 -9 47 -3 3 1 36 3 74 5 38 2 72 9 76 15 4 7 11 11 15 9 13 -4 84
46 85 59 0 7 5 10 10 7 6 -3 10 -2 10 2 0 5 11 20 24 34 29 31 65 108 68 144
1 14 5 25 8 25 9 0 4 156 -5 205 -5 22 -8 48 -9 58 0 9 -3 17 -6 17 -5 0 -9
18 -12 57 -1 7 -4 10 -8 8 -4 -2 -12 14 -19 35 -6 22 -16 40 -21 40 -6 0 -9 3
-8 8 3 9 -43 86 -54 90 -4 2 -8 9 -8 16 0 7 -10 22 -22 33 -13 11 -34 34 -48
52 -14 17 -30 31 -37 31 -7 0 -13 3 -13 8 0 19 -104 71 -147 74 -7 1 -13 4
-13 8 0 6 -48 11 -130 14 -19 0 -38 -3 -41 -8 -4 -5 -22 -10 -40 -12 -41 -3
-55 -7 -94 -24 -16 -7 -33 -13 -37 -12 -5 1 -8 -2 -8 -7 0 -8 -37 -24 -52 -22
-5 1 -8 -3 -8 -8 0 -5 -12 -14 -28 -20 -15 -6 -43 -25 -62 -41 -19 -17 -38
-30 -42 -30 -9 0 -130 -120 -121 -120 5 0 1 -6 -7 -13 -17 -14 -51 -64 -49
-73 0 -4 -5 -10 -13 -15 -7 -5 -13 -12 -13 -16 -1 -4 -8 -24 -17 -43 -20 -44
-29 -69 -35 -100 -2 -13 -7 -27 -11 -30 -4 -3 -7 -12 -7 -20 1 -8 -1 -19 -4
-25 -6 -12 -12 -51 -11 -83 0 -13 -3 -21 -8 -19 -4 3 -7 -29 -6 -71 0 -43 -4
-83 -9 -89 -6 -9 -5 -13 2 -13 9 0 9 -5 1 -20 -8 -15 -8 -20 1 -20 8 0 9 -4 0
-13 -6 -8 -8 -17 -4 -21 4 -3 8 -13 9 -21 1 -7 5 -31 8 -52 17 -118 51 -233
88 -296 15 -26 28 -52 28 -57 0 -6 3 -10 8 -10 4 0 18 -17 32 -38 39 -59 197
-208 215 -203 3 1 15 -8 26 -20 10 -12 19 -19 19 -15 0 3 17 -4 38 -17 34 -21
65 -37 85 -42 4 -2 9 -4 12 -5 3 -1 8 -3 13 -5 4 -1 15 -5 26 -10 10 -4 31 -8
46 -9 15 -1 26 -4 23 -8 -2 -5 6 -8 19 -9 60 -3 74 -5 83 -10 9 -6 61 -10 142
-12 18 0 30 -4 26 -10 -3 -5 4 -4 16 3 17 8 26 8 36 0 7 -6 16 -7 19 -2 3 5
18 8 33 8 15 -1 40 4 56 11 15 8 27 10 27 5 0 -10 124 18 128 30 2 4 8 5 13 2
6 -3 16 0 24 6 8 7 15 9 15 5 0 -4 6 -2 13 4 8 6 17 8 20 4 4 -3 7 -1 7 5 0 7
8 12 19 12 10 0 30 9 44 20 14 11 28 20 32 20 10 0 139 92 143 102 2 4 11 8
19 8 9 0 14 2 11 5 -3 3 19 29 48 58 30 28 54 58 54 66 0 8 3 11 7 8 3 -4 17
11 30 33 13 22 29 40 34 40 6 0 8 4 4 9 -3 6 3 14 12 20 10 6 15 11 11 11 -4
0 6 23 22 50 17 28 30 53 30 56 0 6 39 93 56 125 7 14 11 29 7 33 -3 3 0 6 7
6 7 0 11 3 8 6 -4 3 0 20 7 39 8 18 11 35 8 39 -4 3 -2 6 4 6 10 0 14 13 27
85 2 11 4 20 5 20 3 0 10 35 15 75 2 19 5 35 6 35 1 0 3 23 5 50 1 28 4 68 6
90 2 22 0 46 -5 53 -4 7 -3 12 2 12 5 0 8 12 5 28 -2 15 -5 52 -6 82 -2 30 -6
61 -10 68 -5 7 -3 12 5 12 8 0 9 3 3 8 -12 9 -14 19 -17 77 0 25 -6 45 -11 45
-6 0 -8 3 -4 6 6 6 -17 96 -34 129 -6 12 -11 27 -13 35 -5 27 -68 155 -80 162
-6 4 -8 8 -4 8 9 0 -37 86 -58 111 -8 8 -14 21 -14 27 0 7 -4 12 -10 12 -5 0
-10 7 -10 15 0 8 -4 15 -10 15 -5 0 -10 7 -10 15 0 8 -4 15 -10 15 -5 0 -10 7
-10 15 0 8 -4 15 -10 15 -5 0 -10 7 -10 15 0 8 -4 15 -10 15 -5 0 -16 13 -24
29 -9 16 -31 45 -51 65 -19 20 -35 40 -36 44 0 4 -20 23 -43 42 -24 19 -41 38
-39 43 2 4 -3 7 -11 7 -8 0 -18 9 -21 20 -3 11 -11 20 -16 20 -11 0 -309 298
-309 309 0 4 -11 14 -25 21 -13 7 -27 22 -31 32 -3 10 -10 16 -15 13 -5 -4 -9
1 -9 10 0 9 -3 14 -7 12 -5 -2 -29 18 -55 45 -26 26 -46 48 -44 48 2 0 -15 20
-38 43 -64 69 -94 106 -101 127 -4 11 -10 20 -14 20 -9 0 -35 51 -33 63 1 4
-3 7 -9 7 -5 0 -8 4 -5 9 3 5 -1 12 -10 15 -8 3 -12 10 -9 16 3 5 1 10 -4 10
-6 0 -11 9 -11 20 0 11 -4 20 -10 20 -5 0 -10 4 -10 10 0 5 -12 35 -26 67 -32
69 -66 182 -58 194 3 5 0 9 -6 9 -7 0 -10 13 -9 33 2 18 -1 39 -6 47 -9 14
-13 37 -18 107 -1 18 -4 33 -7 33 -3 0 -5 21 -5 48 1 26 -1 51 -4 57 -10 18
-6 170 4 177 6 5 5 8 -4 8 -11 0 -11 3 -1 15 7 8 10 15 6 15 -3 0 0 16 8 35 8
19 13 35 10 35 -3 0 1 10 8 23 6 12 13 31 15 41 2 11 8 25 14 33 6 7 9 13 5
13 -3 0 3 16 14 36 12 20 15 32 8 28 -7 -4 -5 2 5 13 9 11 14 23 10 26 -3 4
-1 7 5 7 7 0 12 9 12 20 0 11 5 20 12 20 6 0 9 3 5 6 -3 3 3 23 14 42 10 20
19 42 19 49 0 6 3 13 8 15 4 2 21 31 37 65 17 35 34 63 38 63 5 0 6 4 2 9 -3
5 2 17 11 25 8 9 13 16 9 16 -3 0 3 13 14 29 11 15 18 31 14 35 -3 3 -2 6 4 6
5 0 18 18 28 40 10 22 23 40 28 40 6 0 8 3 4 6 -3 4 7 26 24 50 16 24 26 44
22 44 -4 0 1 7 11 15 11 8 16 15 12 15 -4 0 1 12 12 28 11 15 20 32 21 37 0 6
7 17 14 26 8 9 17 28 21 42 3 15 11 27 17 27 6 0 8 3 6 8 -3 4 3 24 13 45 10
20 15 35 10 32 -5 -3 -1 9 8 27 8 18 17 46 19 62 2 16 8 35 15 43 6 7 8 16 5
19 -3 3 1 17 8 31 8 15 12 30 9 35 -3 4 -1 8 4 8 6 0 13 7 16 16 3 8 2 12 -4
9 -5 -3 -3 7 5 21 8 15 12 31 9 36 -3 4 -1 8 3 8 11 0 49 152 59 235 1 11 3
20 4 20 5 0 21 152 23 222 1 33 6 59 10 56 5 -3 4 3 -1 14 -7 12 -7 25 -1 36
6 9 6 17 2 17 -4 0 -9 19 -9 43 -3 76 -14 160 -24 172 -6 7 -5 16 2 23 8 8 9
12 1 12 -6 0 -10 11 -8 25 1 14 -2 25 -8 25 -5 0 -3 8 4 17 12 14 12 16 0 8
-11 -6 -13 -3 -9 13 4 12 2 22 -4 22 -5 0 -9 10 -8 23 1 12 1 27 0 32 -2 6 -4
15 -5 20 -2 6 -4 12 -5 15 -1 3 -4 18 -6 35 -3 16 -9 35 -15 41 -5 6 -6 14 -2
17 3 4 1 13 -5 20 -7 8 -9 17 -5 20 3 4 1 12 -5 20 -6 7 -13 24 -16 39 -2 14
-9 35 -15 46 -6 11 -7 22 -4 26 3 3 1 6 -5 6 -7 0 -11 3 -10 8 2 11 -47 112
-76 155 -14 21 -26 42 -26 47 0 6 -4 10 -10 10 -5 0 -10 6 -10 14 0 8 -10 23
-22 33 -13 10 -24 24 -25 30 -2 6 -13 22 -25 35 -13 13 -36 41 -53 62 -16 22
-45 54 -62 72 -18 18 -33 38 -33 44 0 5 -4 10 -10 10 -5 0 -40 32 -77 71 -123
129 -223 225 -223 215 0 -4 -15 8 -34 26 -18 18 -43 40 -55 48 -13 8 -35 25
-49 37 -15 13 -33 23 -39 23 -7 0 -13 5 -13 10 0 16 -30 12 -36 -5z"/>
<path d="M6184 14860 c-3 -2 -15 -5 -27 -6 -54 -4 -107 -15 -172 -34 -38 -12
-76 -22 -82 -22 -7 -1 -13 -5 -13 -10 0 -4 -3 -7 -7 -7 -13 3 -73 -25 -73 -33
0 -4 -5 -8 -11 -8 -17 0 -139 -89 -139 -101 0 -6 -4 -7 -10 -4 -5 3 -10 -1
-10 -10 0 -9 -4 -13 -10 -10 -5 3 -10 2 -10 -2 0 -5 -12 -22 -27 -40 -55 -61
-82 -102 -115 -173 -11 -25 -24 -47 -28 -50 -4 -3 -6 -13 -4 -22 1 -10 -1 -18
-5 -18 -4 0 -8 -10 -9 -22 -5 -37 -9 -63 -11 -63 -4 0 -11 -39 -13 -68 0 -15
-5 -30 -10 -33 -4 -3 -6 -10 -2 -15 10 -17 12 -59 2 -59 -5 0 -6 -6 -1 -12 4
-7 9 -24 11 -38 7 -51 10 -62 40 -134 9 -22 27 -50 39 -62 12 -12 19 -25 16
-28 -4 -3 1 -6 9 -6 9 0 19 -7 22 -16 3 -8 10 -12 16 -9 5 3 10 2 10 -3 0 -8
48 -33 70 -38 3 0 13 -4 23 -9 10 -4 31 -8 47 -9 17 0 30 -4 30 -8 0 -4 11 -3
24 2 13 5 27 6 30 3 3 -4 6 -1 6 6 0 8 7 11 15 7 8 -3 14 -1 12 4 -1 5 6 15
16 22 23 17 29 64 11 79 -8 6 -14 16 -14 21 0 5 -7 16 -15 24 -8 9 -15 13 -15
10 0 -8 -44 38 -61 64 -9 14 -15 33 -13 43 1 9 -2 15 -7 12 -5 -4 -8 26 -7 69
2 42 6 76 9 76 4 0 6 7 5 17 -2 9 13 48 32 87 20 39 34 71 32 71 -5 0 61 74
84 94 10 9 30 26 44 39 14 12 31 22 38 22 7 0 18 8 23 18 6 9 11 14 11 9 0 -4
14 0 31 8 17 9 33 14 37 11 3 -3 10 -2 16 3 12 10 62 21 112 25 17 1 35 5 40
8 18 9 170 -2 191 -15 6 -4 23 -8 37 -9 14 -1 26 -6 26 -10 0 -4 9 -8 20 -8
11 0 20 -3 20 -8 0 -4 12 -13 28 -19 40 -18 167 -145 156 -156 -2 -2 2 -10 11
-17 8 -7 15 -19 15 -26 0 -8 5 -14 11 -14 5 0 8 -4 5 -9 -3 -5 1 -14 9 -21 8
-7 15 -23 15 -36 0 -13 5 -24 11 -24 5 0 8 -4 5 -8 -3 -5 1 -30 9 -56 8 -25
17 -70 20 -99 3 -29 8 -68 10 -87 5 -39 8 -170 5 -185 -1 -5 -2 -12 0 -15 7
-19 3 -101 -5 -104 -5 -3 -4 -5 2 -5 9 -1 10 -8 3 -26 -6 -16 -6 -25 1 -25 6
0 6 -6 0 -19 -6 -10 -8 -21 -4 -24 3 -4 6 -44 6 -89 0 -46 4 -89 10 -95 6 -9
5 -13 -4 -13 -12 0 -12 -2 0 -9 8 -5 11 -16 8 -25 -3 -8 -2 -18 4 -21 5 -4 9
-12 7 -18 -2 -14 12 -78 20 -92 4 -5 8 -19 9 -29 2 -11 8 -25 14 -33 6 -7 9
-13 5 -13 -4 0 1 -15 11 -32 9 -18 18 -35 18 -38 4 -13 19 -46 24 -50 11 -9
51 -69 51 -76 0 -4 11 -17 24 -29 14 -13 22 -26 19 -29 -4 -3 -2 -6 4 -6 5 0
26 -15 45 -34 20 -19 39 -32 42 -29 3 4 6 1 6 -5 0 -7 7 -12 16 -12 8 0 12 -4
9 -10 -3 -5 2 -10 13 -10 10 0 28 -9 40 -20 12 -11 24 -21 27 -21 23 -3 45
-13 45 -20 0 -5 3 -8 8 -7 7 2 84 -33 92 -43 3 -3 20 -11 38 -18 17 -8 32 -17
32 -22 0 -5 6 -9 14 -9 8 0 38 -12 68 -27 29 -15 58 -28 63 -30 6 -1 19 -4 30
-7 11 -2 21 -5 23 -6 1 -2 7 -4 12 -5 6 -1 13 -4 18 -5 4 -1 15 -1 25 0 10 1
24 -2 30 -7 14 -10 63 -10 95 1 35 12 47 52 23 82 -11 14 -22 25 -25 24 -4 0
-19 6 -35 14 -16 9 -31 12 -35 9 -3 -4 -6 -2 -6 4 0 5 -18 16 -40 23 -22 7
-40 17 -40 22 0 4 -7 8 -15 8 -18 0 -139 60 -143 72 -2 4 -12 8 -23 8 -10 0
-19 5 -19 10 0 6 -7 10 -15 10 -7 0 -19 8 -24 18 -6 9 -11 14 -11 10 0 -7 -51
43 -75 74 -20 25 -105 177 -105 188 0 5 -4 10 -10 10 -5 0 -7 7 -4 15 4 8 2
15 -3 15 -12 0 -33 45 -33 70 0 11 -5 20 -10 20 -6 0 -9 3 -8 8 1 4 -2 19 -6
33 -4 14 -8 33 -10 42 -1 9 -5 19 -8 23 -4 3 -3 16 2 28 4 13 5 29 0 36 -4 7
-7 26 -5 42 2 15 0 28 -5 28 -6 0 -6 10 0 25 5 14 6 25 1 25 -9 0 -5 55 4 71
4 5 2 9 -2 9 -10 0 -10 41 1 58 4 7 3 12 -2 12 -5 0 -8 15 -5 33 7 61 9 107 2
107 -8 0 -5 32 5 48 4 6 3 12 -3 12 -7 0 -7 8 -1 25 5 14 6 25 2 25 -4 0 -8
21 -8 48 -2 94 -8 142 -16 142 -5 0 -7 4 -4 9 3 5 1 33 -5 62 -6 30 -12 62
-12 72 -1 9 -5 17 -10 17 -4 0 -7 6 -6 13 1 6 -1 21 -5 32 -16 43 -24 61 -41
100 -9 22 -16 42 -15 44 1 2 -2 7 -7 10 -4 3 -16 23 -27 43 -10 20 -27 46 -37
57 -11 11 -19 25 -19 31 0 5 -4 10 -10 10 -5 0 -10 7 -10 16 0 8 -4 12 -10 9
-5 -3 -10 -2 -10 2 0 10 -56 73 -64 73 -3 0 -19 14 -36 31 -16 18 -30 28 -30
23 0 -5 -5 -1 -11 9 -5 9 -17 17 -24 17 -8 0 -15 5 -15 10 0 6 -7 10 -15 10
-8 0 -15 5 -15 12 0 6 -3 8 -6 5 -4 -3 -18 2 -32 13 -13 11 -28 17 -32 15 -5
-3 -11 -1 -15 5 -3 5 -15 10 -26 10 -10 0 -19 4 -19 9 0 5 -12 9 -26 9 -15 0
-29 3 -33 8 -3 5 -17 10 -31 11 -39 3 -105 11 -105 13 0 4 -187 4 -191 0z"/>
<path d="M15246 14863 c-3 -4 -81 -14 -103 -14 -12 1 -25 -4 -28 -9 -4 -6 -11
-8 -16 -4 -5 3 -17 0 -26 -8 -9 -7 -17 -11 -17 -9 -3 11 -157 -56 -164 -71 -2
-5 -8 -8 -13 -8 -9 0 -21 -8 -54 -37 -7 -7 -16 -13 -20 -13 -9 0 -140 -133
-140 -142 0 -5 -7 -13 -15 -18 -8 -5 -15 -13 -15 -17 -1 -4 -14 -28 -30 -53
-16 -25 -30 -47 -30 -50 -1 -3 -11 -25 -23 -49 -12 -25 -22 -48 -22 -52 0 -4
-5 -20 -12 -36 -6 -15 -12 -30 -13 -33 -6 -18 -17 -59 -20 -76 -2 -10 -4 -19
-5 -19 -6 0 -20 -113 -23 -182 -1 -29 -4 -53 -7 -53 -3 0 -5 -122 -5 -271 1
-149 -3 -273 -7 -275 -4 -3 -4 -13 2 -23 5 -10 7 -21 4 -24 -3 -3 -8 -20 -11
-39 -10 -63 -22 -101 -43 -146 -10 -20 -16 -40 -13 -44 2 -5 -1 -8 -7 -8 -6 0
-9 -4 -6 -8 3 -5 -4 -19 -15 -30 -10 -12 -19 -25 -19 -29 0 -19 -12 -43 -21
-43 -6 0 -7 -4 -4 -10 3 -5 2 -10 -2 -10 -5 0 -17 -19 -27 -42 -10 -23 -26
-48 -37 -56 -10 -7 -19 -20 -19 -28 0 -8 -4 -14 -8 -14 -5 0 -22 -12 -40 -28
-31 -28 -73 -53 -172 -102 -79 -39 -114 -54 -122 -52 -5 1 -8 -2 -8 -6 0 -5
-18 -15 -40 -22 -22 -7 -40 -17 -40 -22 0 -5 -4 -6 -10 -3 -15 9 -63 -43 -56
-61 3 -9 6 -22 6 -30 0 -8 9 -14 20 -14 11 0 20 -4 20 -8 0 -14 150 4 178 21
6 5 16 6 21 3 5 -4 11 -1 13 4 2 6 13 12 26 13 12 0 22 5 22 9 0 4 3 7 8 6 10
-2 66 25 74 37 4 5 8 7 8 3 0 -4 15 1 33 12 17 11 61 34 97 52 36 17 94 49
129 70 34 21 67 38 72 38 5 0 9 5 9 10 0 6 4 10 10 10 5 0 33 23 61 50 28 28
49 50 45 50 -6 0 15 27 42 55 6 8 12 17 12 20 0 4 9 20 21 36 11 16 17 29 13
29 -4 0 1 9 11 20 10 11 15 20 10 20 -4 0 -3 6 2 13 10 12 47 112 49 132 0 6
4 17 7 25 3 8 9 33 12 55 3 22 9 58 12 80 4 22 6 78 6 125 0 52 4 88 11 92 8
6 8 8 -1 8 -8 0 -11 13 -9 35 2 19 0 38 -6 41 -5 3 -5 11 0 17 10 14 10 47 -1
65 -5 6 -4 12 0 12 5 0 8 31 7 70 -1 50 2 68 10 63 7 -4 6 -1 -1 9 -7 8 -11
17 -9 19 3 2 7 27 10 54 3 28 8 61 10 75 3 14 7 39 10 57 3 18 10 41 15 51 6
11 7 22 4 26 -3 3 -1 6 5 6 6 0 9 6 7 13 -9 22 84 170 142 225 49 46 130 100
142 93 2 -2 7 2 10 7 6 10 56 22 99 25 12 0 22 3 22 7 0 3 32 5 70 5 39 0 70
-3 70 -6 0 -3 11 -5 25 -4 14 2 37 -1 53 -5 15 -5 47 -14 72 -21 150 -42 277
-171 335 -342 17 -50 26 -177 13 -177 -5 0 -7 -4 -3 -9 3 -5 1 -12 -5 -16 -6
-4 -8 -11 -5 -16 4 -5 1 -9 -4 -9 -6 0 -10 -4 -8 -9 1 -5 -18 -28 -43 -50 -24
-23 -52 -58 -62 -79 l-17 -37 41 -37 c22 -21 44 -35 49 -32 5 3 18 0 29 -6 12
-7 20 -7 20 -1 0 5 8 8 19 6 10 -2 29 2 43 9 13 7 32 12 41 10 9 -1 17 1 17 6
0 4 14 13 30 19 17 5 30 15 30 20 0 6 5 11 10 11 9 0 37 27 68 65 7 9 35 73
38 85 4 23 17 69 25 88 7 17 6 21 -2 16 -8 -5 -9 -3 -4 6 10 16 15 110 6 110
-3 0 -6 17 -6 38 0 20 -4 43 -9 50 -5 7 -6 15 -3 18 3 3 0 20 -8 37 -7 18 -10
38 -8 45 3 6 0 12 -6 12 -6 0 -11 7 -11 16 0 15 -36 86 -76 150 -41 66 -203
224 -230 224 -6 0 -17 7 -24 15 -7 8 -16 13 -20 10 -4 -3 -10 1 -13 9 -3 7
-16 16 -29 19 -13 4 -42 14 -64 23 -40 18 -56 23 -86 26 -10 1 -18 5 -18 9 0
4 -10 5 -22 1 -12 -3 -19 -1 -15 4 3 6 -6 10 -21 9 -15 0 -30 4 -34 10 -5 6
-8 6 -8 -2 0 -14 -31 -6 -42 11 -5 7 -8 7 -8 -2 0 -8 -5 -10 -12 -6 -10 7
-176 13 -182 7z"/>
<path d="M10046 12542 c-3 -5 -22 -10 -43 -11 -91 -5 -102 -7 -108 -13 -4 -4
-18 -3 -31 2 -14 6 -26 6 -29 0 -3 -5 -19 -8 -35 -6 -17 2 -30 0 -30 -5 0 -4
-12 -7 -27 -5 -16 1 -34 -2 -40 -7 -7 -5 -24 -7 -38 -5 -14 3 -25 2 -25 -2 0
-4 -6 -7 -12 -8 -7 0 -22 -3 -33 -5 -11 -2 -26 1 -34 7 -11 8 -13 8 -7 -1 5
-9 0 -13 -13 -14 -21 -2 -39 -5 -43 -9 -4 -2 -43 -11 -118 -24 -8 -2 -35 -9
-60 -16 -25 -7 -49 -14 -55 -16 -5 -1 -30 -8 -55 -15 -25 -7 -48 -12 -52 -11
-5 1 -8 -2 -8 -6 0 -8 -7 -10 -50 -14 -11 -1 -20 -5 -20 -9 0 -4 -17 -10 -37
-14 -21 -4 -43 -11 -49 -16 -6 -5 -19 -10 -30 -12 -10 -1 -25 -6 -31 -10 -7
-5 -13 -5 -13 0 0 4 -4 3 -8 -2 -4 -6 -25 -16 -47 -24 -22 -7 -69 -27 -105
-44 -36 -17 -68 -30 -72 -29 -5 1 -8 -3 -8 -10 0 -6 -3 -8 -7 -5 -3 4 -15 0
-25 -10 -10 -9 -18 -12 -18 -8 0 4 -9 0 -20 -10 -11 -10 -20 -15 -20 -11 0 5
-16 -1 -36 -13 -19 -12 -42 -21 -50 -21 -8 0 -14 -4 -14 -10 0 -5 -5 -10 -11
-10 -6 0 -22 -9 -36 -20 -14 -11 -29 -18 -33 -15 -4 3 -13 -2 -20 -10 -7 -8
-19 -15 -26 -15 -8 0 -14 -4 -14 -9 0 -10 -60 -37 -73 -33 -5 1 -6 -2 -3 -7 3
-5 -8 -14 -24 -20 -17 -5 -30 -15 -30 -22 0 -7 -3 -10 -6 -6 -4 3 -13 -1 -21
-9 -8 -8 -18 -12 -23 -9 -4 3 -11 -2 -14 -11 -3 -8 -10 -13 -15 -10 -5 3 -12
-1 -15 -10 -4 -9 -9 -14 -13 -10 -3 3 -12 -3 -20 -14 -8 -11 -20 -20 -27 -20
-8 0 -16 -7 -20 -15 -3 -8 -12 -15 -20 -15 -9 0 -24 -10 -36 -22 -11 -12 -20
-19 -20 -15 0 4 -9 -1 -19 -10 -29 -27 -42 -36 -81 -60 -20 -12 -46 -31 -59
-42 -13 -11 -28 -18 -34 -14 -5 3 -8 2 -5 -3 3 -5 0 -15 -8 -22 -8 -7 -14 -9
-14 -5 -1 4 -9 -2 -19 -14 -10 -12 -21 -20 -24 -17 -3 3 -11 -4 -17 -16 -6
-12 -14 -19 -17 -17 -2 3 -12 -2 -22 -11 -9 -9 -39 -35 -66 -57 -28 -22 -63
-53 -80 -70 -17 -16 -37 -30 -45 -29 -8 0 -27 -8 -42 -19 -16 -10 -28 -15 -28
-11 0 5 -5 3 -12 -4 -7 -7 -22 -12 -35 -12 -13 0 -23 -4 -23 -8 0 -4 -8 -8
-17 -9 -47 -2 -73 -8 -73 -15 0 -5 -11 -6 -25 -4 -14 3 -25 1 -25 -3 0 -5 -11
-9 -25 -10 -48 -3 -55 -4 -55 -13 0 -5 -7 -5 -17 0 -9 5 -28 6 -43 2 -15 -4
-33 -4 -40 0 -7 5 -23 4 -36 0 -12 -5 -24 -6 -28 -3 -5 5 -37 11 -88 16 -10 1
-18 5 -18 9 0 4 -13 8 -28 8 -15 0 -34 6 -41 13 -11 10 -12 9 -6 -3 8 -13 7
-13 -9 0 -17 13 -35 20 -63 22 -7 1 -13 5 -13 10 0 4 -3 7 -7 7 -5 -1 -11 0
-15 1 -5 1 -12 4 -18 5 -5 1 -12 4 -15 5 -3 1 -9 4 -15 5 -5 1 -11 3 -12 4 -2
2 -14 5 -28 7 -14 3 -26 9 -28 14 -2 6 -15 10 -28 10 -13 0 -24 3 -24 8 0 4
-10 8 -22 9 -45 4 -88 15 -83 22 2 4 -9 7 -26 6 -16 -1 -32 2 -35 7 -3 4 -10
6 -15 3 -5 -4 -9 0 -9 7 0 9 -3 9 -10 -2 -5 -8 -10 -10 -10 -4 0 6 -10 10 -22
9 -13 -1 -27 0 -33 4 -5 3 -20 6 -33 7 -12 0 -25 4 -28 7 -4 4 -15 2 -25 -4
-13 -7 -19 -6 -19 1 0 8 -6 8 -20 0 -11 -6 -20 -7 -20 -2 0 5 -18 8 -40 7 -22
-2 -40 2 -40 7 0 7 -5 7 -12 1 -7 -5 -43 -8 -80 -8 -38 0 -68 -2 -68 -5 0 -3
-20 -5 -45 -4 -25 0 -45 -3 -45 -6 0 -4 -11 -6 -25 -5 -14 2 -25 -1 -25 -6 0
-6 -5 -7 -10 -4 -6 4 -18 1 -27 -7 -14 -11 -16 -11 -8 2 8 13 7 13 -8 1 -9 -7
-17 -10 -17 -6 0 4 -6 3 -12 -3 -7 -6 -30 -13 -50 -17 -21 -4 -38 -12 -38 -18
0 -6 -3 -8 -6 -5 -3 4 -17 0 -31 -7 -15 -8 -30 -12 -35 -9 -4 3 -8 1 -8 -5 0
-5 -10 -13 -22 -17 -13 -3 -30 -12 -38 -19 -8 -8 -22 -15 -30 -17 -8 -2 -17
-5 -20 -8 -3 -3 -30 -21 -60 -40 -30 -19 -61 -40 -68 -47 -7 -7 -19 -13 -25
-13 -7 0 -28 -16 -47 -35 -19 -19 -39 -35 -46 -35 -7 0 -15 -7 -18 -16 -4 -9
-9 -14 -12 -11 -3 3 -13 -2 -23 -11 -9 -9 -33 -30 -52 -45 -61 -49 -139 -120
-215 -195 -41 -40 -74 -69 -74 -65 -1 5 -8 -5 -16 -20 -8 -15 -19 -25 -24 -22
-6 4 -10 2 -10 -3 0 -6 -31 -42 -70 -82 -38 -40 -70 -76 -70 -81 0 -4 -6 -12
-13 -16 -8 -4 -35 -35 -62 -68 -26 -33 -51 -62 -55 -65 -4 -3 -13 -16 -20 -30
-11 -21 -71 -101 -90 -120 -3 -3 -18 -31 -34 -62 -16 -32 -37 -66 -47 -77 -10
-10 -15 -22 -12 -25 4 -3 0 -6 -7 -6 -7 0 -11 -3 -7 -6 3 -4 -1 -13 -9 -21 -8
-8 -12 -18 -9 -23 3 -4 -2 -10 -10 -14 -8 -3 -12 -12 -9 -21 3 -8 2 -15 -3
-15 -5 0 -9 -9 -9 -20 0 -24 9 -26 26 -5 7 8 16 12 21 9 5 -3 6 1 3 9 -3 8 0
18 5 22 6 3 9 10 6 15 -3 5 5 16 17 24 12 9 19 16 14 16 -5 0 -3 7 4 15 7 8 9
15 6 15 -4 0 57 65 136 144 79 79 145 142 146 140 4 -2 24 15 93 79 10 9 19
15 19 12 0 -5 29 18 55 43 8 6 18 12 23 12 6 0 12 4 14 8 4 10 125 84 134 82
4 -1 10 3 14 10 4 6 15 12 24 14 10 1 22 9 27 17 5 8 9 11 9 6 0 -4 10 -1 23
8 13 8 27 12 30 8 4 -3 7 -1 7 6 0 8 6 11 16 7 8 -3 12 -2 9 4 -3 5 13 14 35
21 22 7 40 16 40 21 0 5 4 6 10 3 6 -3 10 -1 10 5 0 6 3 9 8 7 4 -3 18 0 32 6
14 5 30 11 35 11 6 1 21 7 35 13 44 20 65 26 78 24 8 -1 19 2 25 7 7 6 26 13
42 16 17 3 44 8 60 12 17 4 42 7 57 8 14 0 24 4 22 8 -3 5 5 7 18 7 13 0 43 2
68 6 25 3 60 8 78 10 18 2 37 7 42 10 6 3 10 0 10 -7 0 -8 3 -9 8 -2 7 10 98
11 108 1 3 -3 12 -3 20 0 8 3 22 -1 31 -8 14 -12 15 -12 9 0 -6 8 0 7 18 -4
14 -10 26 -14 26 -10 0 4 6 2 13 -4 8 -6 17 -8 20 -5 4 4 17 0 30 -9 13 -8 42
-21 65 -28 23 -7 39 -16 35 -22 -4 -6 0 -8 10 -4 9 3 18 0 21 -9 3 -9 10 -13
15 -10 5 4 16 -1 24 -9 9 -8 20 -15 25 -15 5 0 15 -7 22 -15 7 -8 16 -12 21
-9 5 3 9 0 9 -5 0 -6 5 -11 10 -11 6 0 38 -18 71 -40 33 -22 65 -40 70 -40 5
0 9 -4 9 -8 0 -5 18 -17 40 -28 22 -10 40 -22 40 -26 0 -5 5 -8 11 -8 5 0 30
-15 53 -32 24 -18 54 -40 67 -48 12 -8 33 -25 46 -37 13 -13 25 -22 26 -20 7
6 55 -41 49 -48 -4 -3 -2 -5 4 -3 6 2 31 -13 55 -32 24 -19 47 -34 51 -33 4 2
10 -6 13 -17 4 -11 11 -20 16 -20 8 0 25 -13 83 -65 6 -5 34 -26 61 -44 28
-19 52 -38 55 -42 3 -3 25 -17 50 -29 25 -12 47 -26 50 -30 6 -8 43 -24 53
-22 4 1 7 -3 7 -8 0 -5 3 -10 8 -9 15 2 52 -14 52 -22 0 -5 7 -9 15 -9 8 0 23
-4 33 -9 16 -8 36 -17 97 -41 14 -5 35 -14 48 -19 12 -5 40 -15 62 -22 22 -6
46 -16 53 -22 6 -5 12 -7 12 -3 0 3 11 1 26 -4 14 -6 39 -12 57 -15 17 -4 35
-11 39 -18 4 -6 10 -9 13 -5 4 4 24 0 46 -7 21 -8 39 -12 39 -8 0 3 6 0 14 -6
8 -6 18 -11 22 -10 5 1 11 0 14 -1 10 -3 45 -11 58 -12 6 -1 12 -4 12 -8 0 -3
16 -7 37 -8 20 -2 41 -6 47 -9 10 -7 25 -10 73 -16 12 -1 25 -6 28 -9 4 -4 13
-4 20 -2 7 3 16 0 20 -6 6 -9 10 -9 16 1 7 11 9 11 9 1 0 -7 5 -10 10 -7 6 3
16 3 23 -2 12 -8 51 -14 95 -15 12 0 22 -4 22 -10 0 -5 10 -9 23 -8 12 1 24 1
27 0 3 -1 14 -4 25 -6 29 -5 107 -21 130 -27 31 -7 117 -20 148 -21 15 0 27
-5 27 -11 0 -5 5 -3 10 5 5 8 10 10 10 3 0 -6 9 -9 22 -5 14 3 19 2 14 -6 -5
-9 0 -9 18 -2 14 5 26 6 26 2 0 -4 27 -7 60 -7 33 0 60 -4 60 -9 0 -7 3 -7 10
0 6 6 35 7 70 4 33 -3 60 -3 60 0 0 4 22 4 49 0 27 -3 58 -3 70 2 14 5 21 3
21 -5 0 -8 3 -8 9 2 6 9 10 10 16 2 5 -9 10 -9 21 0 11 9 14 9 14 0 0 -7 4
-10 9 -6 6 3 46 7 90 9 44 2 84 7 90 10 5 3 11 2 13 -3 1 -4 17 5 33 22 17 16
24 26 16 22 -10 -6 -12 -4 -5 6 5 8 9 19 9 24 1 14 -19 34 -27 28 -5 -2 -8 1
-8 8 0 6 -8 9 -20 6 -11 -3 -20 -2 -20 2 0 7 -7 9 -50 13 -11 1 -20 6 -20 10
0 4 -16 8 -35 8 -19 0 -35 4 -35 9 0 4 -11 6 -24 4 -13 -3 -27 0 -30 6 -4 5
-13 8 -21 4 -8 -3 -15 -1 -15 5 0 5 -10 8 -22 8 -13 -1 -31 2 -41 7 -10 5 -31
11 -45 13 -15 3 -34 7 -42 11 -18 8 -17 7 -60 17 -38 9 -84 28 -196 82 -38 19
-74 34 -78 34 -4 0 -22 10 -39 22 -18 13 -34 22 -37 22 -8 -3 -95 39 -101 49
-3 5 -10 9 -15 9 -17 1 -54 21 -54 30 0 4 -3 7 -7 6 -9 -2 -65 23 -73 32 -3 3
-26 17 -52 30 -27 14 -48 28 -48 31 0 6 -37 19 -48 18 -2 0 -13 10 -26 23 -12
13 -29 24 -37 26 -7 2 -19 10 -25 17 -6 8 -14 12 -17 8 -4 -3 -7 -1 -7 6 0 7
-4 9 -10 6 -5 -3 -10 -2 -10 4 0 6 -11 13 -25 17 -14 3 -25 10 -25 15 0 5 -7
9 -15 9 -8 0 -15 5 -15 10 0 6 -7 10 -15 10 -8 0 -15 5 -15 10 0 6 -7 10 -15
10 -8 0 -15 5 -15 11 0 5 -4 7 -10 4 -5 -3 -10 -2 -10 2 0 5 -17 17 -37 28
-21 11 -47 28 -57 38 -11 9 -26 17 -33 17 -7 0 -13 4 -13 8 0 5 -17 18 -38 30
-21 11 -46 30 -55 40 -19 21 -22 15 49 95 13 15 22 27 19 27 -3 0 3 8 13 18
26 27 66 76 67 81 1 18 365 382 365 366 0 -2 15 11 33 28 18 18 48 43 67 57
18 14 44 35 57 48 13 13 23 19 23 15 1 -4 10 3 20 16 11 13 20 20 20 17 0 -4
10 2 22 13 11 11 26 18 31 14 6 -3 7 -2 4 4 -3 5 10 17 29 28 19 10 34 22 34
27 0 4 7 8 15 8 8 0 15 5 15 11 0 5 4 8 8 5 5 -3 16 3 25 12 23 25 47 44 47
37 0 -3 10 3 22 15 12 11 28 20 35 20 7 0 13 4 13 8 0 10 50 37 63 34 4 -1 7
2 7 7 0 5 16 16 35 25 19 9 35 21 35 27 0 6 4 8 9 4 5 -3 15 1 23 8 16 15 70
41 81 39 4 -1 7 2 7 7 0 8 37 24 53 22 4 -1 7 3 7 8 0 5 12 12 27 16 15 3 30
10 33 15 3 4 14 10 25 12 11 1 26 9 33 16 8 7 17 10 22 7 5 -3 11 -1 15 5 4 6
11 8 16 5 5 -4 9 -2 9 2 0 5 20 15 45 22 25 7 45 18 45 24 0 6 3 8 6 4 3 -3
31 5 61 19 30 13 59 21 64 18 5 -3 9 0 9 5 0 6 9 11 20 11 11 0 20 5 20 11 0
5 5 7 10 4 6 -4 18 -1 27 7 9 7 14 8 10 2 -3 -6 11 -3 32 8 21 10 46 20 57 22
10 2 39 11 63 20 25 8 48 13 53 10 4 -3 8 0 8 7 0 7 3 10 6 6 3 -3 17 -2 30 3
14 6 35 12 47 14 12 3 33 8 47 11 14 3 30 7 35 8 6 2 16 6 23 10 6 5 12 5 12
0 0 -4 5 -1 10 7 7 11 10 11 10 2 0 -8 5 -10 13 -5 6 4 18 8 26 10 8 1 47 9
87 18 41 9 78 14 84 10 5 -3 10 -1 10 6 0 8 4 8 15 -1 12 -10 16 -10 20 1 3 9
20 14 45 13 22 0 40 2 40 5 0 4 18 6 41 6 22 0 45 3 52 7 6 4 17 2 24 -4 8 -6
13 -7 13 -1 0 13 123 11 132 -2 5 -6 8 -6 8 1 0 6 7 11 15 11 8 0 15 -3 15 -7
0 -4 20 -6 45 -6 25 1 45 -3 45 -9 0 -5 5 -3 10 5 5 8 10 10 10 5 0 -6 17 -11
38 -10 20 0 39 -3 42 -7 3 -4 22 -8 43 -10 20 -1 37 -5 37 -8 0 -3 12 -7 28
-8 15 -1 38 -6 52 -12 14 -5 36 -12 50 -14 14 -3 27 -5 30 -6 3 -2 8 -2 13 -1
4 0 7 -4 7 -11 0 -6 3 -8 7 -5 3 4 12 2 18 -3 7 -6 24 -11 39 -12 14 -1 26 -6
26 -10 0 -4 11 -8 25 -8 14 0 25 -4 25 -10 0 -5 7 -10 15 -10 26 0 91 -35 140
-75 84 -69 175 -171 175 -194 0 -6 5 -11 11 -11 5 0 7 -4 4 -10 -3 -5 -1 -10
4 -10 6 0 11 -9 11 -19 0 -11 4 -21 9 -23 5 -1 11 -10 13 -18 2 -8 6 -17 10
-20 3 -3 8 -14 10 -25 1 -11 7 -23 11 -26 4 -3 9 -16 10 -27 1 -12 4 -22 8
-22 5 0 20 -52 18 -63 0 -1 5 -15 11 -32 13 -33 22 -76 24 -117 0 -16 3 -28 6
-28 3 0 6 -9 7 -20 1 -11 -2 -18 -7 -15 -5 3 -5 -7 -1 -23 5 -17 5 -36 -1 -47
-8 -14 -8 -16 2 -10 9 6 11 4 5 -5 -4 -7 -9 -32 -11 -54 -2 -23 -6 -52 -10
-66 -4 -14 -8 -29 -9 -35 -1 -5 -3 -13 -5 -17 -1 -5 -3 -11 -5 -15 -1 -5 -5
-21 -10 -38 -4 -16 -15 -40 -22 -52 -8 -12 -14 -24 -14 -28 1 -3 -6 -22 -15
-43 -10 -20 -18 -41 -18 -45 -1 -4 -7 -11 -14 -16 -8 -5 -14 -12 -14 -17 0
-14 -31 -64 -40 -64 -4 0 -8 -7 -8 -15 0 -7 -8 -19 -17 -24 -10 -6 -14 -11 -9
-11 8 0 -52 -60 -60 -60 -2 0 -13 -8 -24 -17 -11 -10 -22 -16 -23 -13 -1 3
-17 -5 -34 -18 -18 -13 -33 -21 -33 -18 0 3 -19 -1 -41 -10 -92 -32 -95 -27
-26 41 36 35 71 77 78 94 8 17 17 31 21 31 5 0 8 7 8 15 0 8 5 15 11 15 5 0 8
4 5 9 -7 11 4 42 13 37 3 -2 7 10 8 27 4 48 6 57 13 57 3 0 6 12 5 28 0 15 2
49 6 75 3 26 2 50 -2 53 -5 2 -6 11 -2 19 3 9 -1 15 -8 15 -9 0 -10 3 -4 8 14
10 17 32 4 32 -5 0 -7 5 -4 10 3 6 1 10 -4 10 -6 0 -11 5 -11 11 0 5 5 7 11 4
7 -5 7 -2 0 11 -20 37 -55 119 -53 127 1 4 -2 7 -6 7 -5 0 -17 19 -28 43 -10
23 -21 44 -25 47 -3 3 -9 15 -13 28 -4 12 -12 22 -17 22 -6 0 -7 5 -4 10 3 6
1 10 -4 10 -6 0 -11 6 -11 13 0 6 -10 24 -23 39 -12 14 -38 46 -57 69 -19 24
-45 52 -57 63 -12 10 -20 23 -17 28 3 5 1 7 -4 6 -5 -2 -24 9 -41 25 -17 15
-37 27 -44 27 -7 0 -22 7 -33 15 -10 8 -27 15 -36 15 -10 0 -18 3 -18 8 0 14
-187 20 -267 8 -29 -4 -53 -13 -53 -19 0 -7 -5 -5 -10 3 -8 12 -10 12 -10 1 0
-8 -3 -12 -6 -8 -4 3 -23 0 -43 -8 -56 -21 -76 -27 -77 -23 0 2 -8 -3 -17 -11
-10 -7 -17 -11 -17 -7 0 3 -8 -1 -17 -9 -10 -8 -21 -15 -26 -15 -9 0 -101 -63
-123 -84 -8 -9 -20 -14 -25 -11 -5 4 -9 -2 -9 -11 0 -10 -3 -15 -6 -11 -8 7
-204 -188 -204 -203 0 -5 -5 -10 -11 -10 -5 0 -7 -4 -4 -10 3 -5 1 -10 -5 -10
-6 0 -16 -12 -22 -27 -7 -16 -20 -39 -30 -52 -10 -13 -15 -27 -12 -32 3 -5 1
-9 -4 -9 -9 0 -18 -20 -27 -58 -2 -8 -7 -21 -11 -30 -4 -9 -8 -25 -9 -34 -2
-10 -3 -19 -4 -20 -5 -6 -14 -54 -15 -75 -1 -13 -4 -23 -8 -23 -3 0 -5 -8 -3
-17 1 -10 0 -22 -3 -28 -17 -29 -20 -256 -4 -296 8 -19 7 -30 -1 -39 -9 -10
-9 -11 1 -6 10 6 16 -16 11 -50 0 -4 4 -10 10 -13 6 -4 12 -19 13 -34 1 -15 6
-27 11 -27 4 0 6 -4 2 -9 -3 -5 -1 -12 5 -16 6 -4 8 -10 5 -15 -3 -5 -1 -11 5
-15 5 -3 10 -15 10 -26 0 -10 5 -19 10 -19 6 0 10 -9 10 -19 0 -11 5 -23 11
-26 6 -4 8 -13 5 -21 -3 -8 -1 -14 5 -14 6 0 7 -4 4 -10 -3 -5 -1 -10 4 -10 6
0 11 -5 11 -12 0 -17 62 -138 83 -162 9 -11 17 -26 17 -33 0 -7 8 -13 17 -13
9 0 14 -3 10 -6 -3 -4 -1 -12 6 -19 7 -7 28 -32 47 -56 19 -24 48 -56 64 -71
16 -15 26 -28 22 -28 -4 0 10 -15 30 -32 21 -18 52 -46 70 -63 58 -53 99 -85
112 -85 6 0 12 -4 12 -9 0 -5 15 -14 33 -22 17 -7 43 -20 57 -30 14 -9 28 -17
33 -18 4 0 42 -16 84 -36 41 -19 82 -35 89 -35 7 0 16 -5 19 -10 4 -6 11 -8
16 -5 5 4 9 2 9 -2 0 -5 10 -9 22 -10 11 -1 25 -8 29 -15 5 -7 9 -10 9 -5 0 4
14 1 30 -8 17 -9 30 -13 30 -11 0 3 25 -4 55 -14 30 -10 55 -16 55 -13 0 3 6
1 13 -5 6 -5 28 -12 47 -15 19 -3 47 -10 62 -15 15 -6 36 -9 47 -7 12 2 21 0
21 -4 0 -4 14 -8 30 -9 69 -5 80 -6 80 -12 0 -3 19 -6 43 -8 54 -3 69 -6 86
-16 11 -7 12 -6 6 5 -7 11 -6 12 6 3 8 -7 41 -15 74 -18 33 -4 76 -9 95 -12
19 -3 53 -7 75 -9 22 -2 40 -4 40 -5 0 -1 38 -3 85 -6 47 -2 95 -6 108 -9 12
-3 22 -1 22 5 0 6 5 8 12 4 21 -13 303 -4 326 10 7 4 12 2 12 -4 0 -6 5 -8 11
-4 6 4 30 8 53 10 75 5 126 13 136 19 5 3 10 0 10 -7 0 -8 3 -9 8 -3 4 6 12
11 17 12 6 1 30 4 55 8 24 4 48 9 52 11 5 3 8 -1 8 -8 0 -10 2 -10 9 1 5 7 14
10 20 7 6 -4 11 -3 11 1 0 5 10 10 23 11 12 0 38 4 57 7 19 4 41 7 48 8 6 0
12 4 12 9 0 5 8 8 18 7 9 -1 19 0 22 1 15 5 47 11 63 11 9 0 17 3 17 7 0 4 8
8 18 9 18 1 25 3 112 28 30 9 61 17 68 17 6 1 12 5 12 10 0 4 3 7 8 6 6 -2 88
26 142 49 8 3 18 5 23 5 4 -1 7 3 7 8 0 5 3 10 8 9 15 -2 52 14 52 23 0 5 4 7
9 4 9 -6 112 34 122 48 4 5 12 5 18 2 6 -4 11 -3 11 2 0 6 7 13 16 16 9 3 12
2 9 -4 -4 -6 10 -1 29 10 20 11 38 20 41 20 3 0 21 6 41 15 19 8 38 14 42 13
4 -1 20 4 35 10 16 7 37 12 48 12 10 0 19 6 19 13 0 8 4 7 10 -3 5 -8 10 -10
10 -5 0 6 42 9 113 8 138 -3 139 -3 155 -16 8 -6 12 -6 12 2 0 7 5 9 13 4 15
-9 35 -14 65 -16 12 0 22 -5 22 -11 0 -5 3 -7 6 -4 3 3 21 2 41 -4 49 -13 76
-19 91 -20 6 -1 12 -6 12 -11 0 -6 3 -8 6 -5 3 3 29 -1 57 -9 65 -18 147 -26
147 -13 0 5 6 7 13 5 28 -10 49 22 51 79 0 31 -3 57 -7 59 -5 1 -9 24 -10 50
-1 26 -5 47 -9 47 -3 0 -5 11 -3 25 1 14 -1 27 -5 30 -4 2 -6 18 -5 35 1 16
-1 30 -5 30 -4 0 -7 17 -6 38 1 20 0 41 -2 46 -3 5 -5 26 -4 48 0 21 1 60 1
86 1 42 6 54 39 88 20 22 55 51 77 64 22 13 43 28 46 33 3 5 9 8 13 8 3 -1 19
5 35 13 16 9 31 12 35 9 3 -4 6 0 6 7 0 7 3 10 7 7 3 -4 11 -3 17 2 7 6 23 12
36 15 14 3 48 14 77 24 28 11 54 17 57 14 3 -3 6 -1 6 4 0 9 26 15 78 18 12 0
22 3 22 6 0 3 15 6 33 7 43 4 102 11 102 13 0 1 11 3 25 5 134 13 169 17 195
21 17 2 44 6 61 8 17 1 36 6 43 10 6 4 11 2 11 -4 0 -6 5 -8 12 -3 12 7 48 13
96 16 12 0 22 6 22 12 0 5 5 3 10 -5 5 -8 10 -10 10 -4 0 6 16 10 35 9 19 0
35 2 35 5 0 3 8 7 18 8 33 4 51 8 58 14 3 4 12 4 20 1 8 -3 21 0 29 7 8 6 19
9 25 5 5 -3 10 -2 10 3 0 5 6 9 13 10 42 5 69 12 80 20 7 5 19 10 27 10 17 0
52 8 80 17 10 3 27 8 37 10 43 9 138 39 143 44 3 3 13 7 22 9 10 1 34 10 55
19 21 9 40 17 43 17 16 2 210 105 220 117 3 3 20 14 38 24 17 11 32 23 32 28
0 4 4 6 8 3 5 -3 24 8 43 25 19 16 40 29 47 29 6 0 12 5 12 10 0 6 7 13 15 17
9 3 31 19 50 35 18 17 35 28 37 27 2 -2 18 10 35 26 153 148 169 165 156 165
-4 1 2 6 14 13 12 7 21 14 20 17 -1 3 13 26 31 52 18 26 32 51 32 56 0 5 7 15
15 22 8 7 13 16 10 20 -3 4 2 13 10 20 8 7 13 16 10 20 -3 5 -1 11 5 15 6 4 8
11 5 16 -4 5 -1 9 5 9 6 0 9 4 5 9 -3 5 -1 12 5 16 6 4 8 10 5 15 -3 5 -1 11
5 15 6 4 8 10 5 15 -3 5 -1 19 5 30 6 11 13 33 15 48 8 50 11 61 18 68 12 12
8 26 -5 18 -7 -5 -8 -3 -3 7 13 20 14 99 1 99 -6 0 -4 5 4 10 12 8 13 13 2 30
-7 11 -8 20 -3 20 10 0 9 26 -2 36 -4 4 -7 20 -7 36 0 16 -5 39 -11 50 -7 12
-7 18 -1 14 6 -3 2 18 -9 46 -11 29 -17 58 -15 65 3 6 -1 13 -8 16 -7 3 -18
23 -26 46 -7 23 -17 41 -22 41 -4 0 -8 6 -8 14 0 7 -7 19 -15 26 -9 7 -13 15
-10 18 2 3 -9 18 -25 34 -16 15 -26 28 -22 28 4 0 -4 6 -18 14 -34 18 -45 4
-27 -33 9 -17 11 -28 5 -25 -6 4 -1 -6 11 -22 11 -16 22 -41 23 -56 1 -16 5
-28 8 -28 6 0 11 -33 13 -77 1 -13 3 -23 7 -23 3 0 4 -37 3 -83 -3 -121 -6
-157 -13 -157 -4 0 -7 -6 -8 -12 0 -7 -3 -20 -5 -28 -15 -59 -29 -107 -34
-120 -3 -8 -5 -18 -5 -22 1 -5 -3 -8 -9 -8 -5 0 -8 -3 -6 -8 5 -7 -12 -46 -52
-117 -41 -72 -70 -103 -108 -115 -21 -7 -43 -16 -49 -21 -6 -5 -19 -10 -30
-12 -10 -2 -27 -7 -36 -11 -9 -4 -25 -9 -35 -11 -10 -2 -19 -4 -20 -5 -2 -2
-7 -4 -13 -5 -5 -1 -12 -4 -15 -5 -3 -1 -9 -4 -15 -5 -5 -1 -11 -3 -12 -5 -2
-1 -13 -4 -25 -6 -13 -2 -33 -6 -45 -8 -13 -2 -24 -5 -25 -6 -2 -2 -7 -4 -13
-5 -5 -1 -12 -4 -15 -5 -3 -1 -13 -3 -22 -5 -10 -1 -25 -5 -33 -8 -8 -4 -26
-8 -40 -9 -14 -2 -31 -7 -37 -11 -8 -5 -13 -3 -13 5 0 11 -2 11 -9 0 -4 -7
-24 -14 -44 -15 -20 -1 -37 -4 -37 -7 0 -4 -10 -6 -22 -7 -25 0 -85 -9 -138
-19 -19 -4 -45 -7 -57 -8 -13 0 -23 -4 -23 -8 0 -5 -10 -4 -21 3 -12 6 -19 7
-16 2 4 -6 -14 -11 -39 -11 -57 -3 -67 -5 -76 -17 -5 -7 -10 -7 -15 0 -10 13
-43 16 -43 3 0 -5 -6 -6 -12 -2 -19 12 -48 12 -48 0 0 -8 -3 -8 -8 -1 -7 10
-53 18 -119 19 -18 0 -33 3 -33 6 0 3 -17 6 -37 7 -41 2 -128 11 -128 13 0 3
-56 9 -107 12 -27 1 -48 5 -48 9 0 4 -16 6 -35 5 -19 -2 -46 3 -60 10 -14 7
-23 9 -20 5 2 -5 -9 -8 -25 -7 -17 0 -30 3 -30 7 0 5 -37 9 -97 10 -18 0 -33
3 -33 7 0 4 -18 8 -40 9 -82 5 -100 7 -100 12 0 3 -21 7 -46 8 -25 1 -51 7
-59 13 -10 8 -15 8 -20 0 -5 -8 -11 -8 -21 1 -8 6 -17 9 -21 6 -3 -4 -12 -2
-20 4 -10 9 -13 8 -13 -1 0 -9 -3 -10 -13 -1 -8 6 -17 8 -20 4 -4 -3 -7 -1 -7
5 0 8 -7 9 -26 2 -14 -6 -23 -6 -20 -1 3 5 -3 11 -14 14 -13 3 -18 1 -13 -6 5
-9 3 -9 -8 -1 -8 6 -21 11 -29 12 -38 1 -96 15 -102 26 -6 8 -8 8 -8 -1 0 -8
-13 -7 -47 3 -26 8 -53 12 -60 10 -7 -3 -13 -1 -13 4 0 5 -8 9 -17 9 -43 2
-63 6 -63 11 0 4 -6 7 -12 8 -19 1 -70 12 -93 19 -11 4 -22 8 -25 8 -3 1 -23
6 -44 13 -22 6 -43 9 -48 6 -4 -3 -8 0 -8 5 0 6 -11 11 -25 11 -14 0 -25 4
-25 8 0 4 -10 8 -23 10 -13 1 -40 8 -60 17 -20 8 -39 15 -42 15 -3 0 -19 7
-35 15 -17 9 -30 12 -30 8 0 -5 -6 -1 -13 7 -7 8 -20 16 -31 18 -10 2 -42 14
-70 26 -28 13 -66 29 -83 36 -18 7 -33 17 -33 22 0 5 -4 7 -9 4 -5 -3 -34 7
-65 24 -31 16 -59 29 -62 29 -12 -2 -64 24 -64 32 0 5 -9 9 -20 9 -11 0 -20 4
-20 8 0 5 -16 14 -35 22 -19 8 -35 17 -35 22 0 4 -10 8 -22 8 -12 0 -18 3 -15
6 4 4 -12 17 -36 29 -23 12 -62 32 -87 45 -25 13 -48 23 -52 22 -5 -1 -8 3 -8
9 0 5 -4 8 -9 4 -5 -3 -12 -1 -16 5 -4 6 -11 8 -16 5 -5 -4 -9 -1 -9 4 0 6 -9
11 -20 11 -11 0 -20 5 -20 11 0 6 -6 9 -14 6 -8 -3 -20 1 -26 9 -7 8 -21 14
-31 14 -11 0 -19 5 -19 10 0 6 -3 9 -7 8 -14 -5 -93 25 -93 35 0 5 -7 4 -15
-3 -9 -7 -15 -8 -15 -2 0 9 -28 20 -74 29 -11 2 -25 8 -32 14 -7 6 -18 8 -24
4 -5 -3 -10 -2 -10 2 0 5 -8 9 -17 10 -10 0 -34 4 -53 8 -19 3 -43 6 -52 6
-10 0 -18 4 -18 8 0 4 -23 7 -50 7 -28 -1 -50 4 -50 9 0 6 -5 3 -10 -5 -5 -8
-10 -10 -10 -4 0 10 -15 11 -99 2 -25 -3 -56 -43 -57 -76 0 -18 1 -30 4 -27 2
2 11 -3 19 -11 8 -8 19 -12 24 -8 6 3 15 2 22 -3 7 -5 30 -15 52 -22 22 -7 57
-26 77 -42 20 -16 40 -29 43 -29 3 0 15 -9 27 -20 12 -11 28 -20 35 -20 7 0
13 -4 13 -9 0 -5 14 -14 30 -21 17 -7 30 -16 30 -21 0 -5 5 -9 11 -9 6 0 17
-7 26 -15 8 -8 19 -13 24 -10 5 4 9 2 9 -4 0 -11 85 -71 101 -71 5 0 9 -4 9
-10 0 -5 13 -16 29 -25 16 -8 35 -20 43 -27 7 -7 30 -24 50 -38 21 -14 38 -29
38 -33 0 -5 4 -5 10 -2 5 3 19 -6 32 -20 12 -14 25 -25 30 -25 7 0 35 -21 63
-47 8 -7 17 -13 20 -13 7 0 55 -38 102 -80 12 -11 25 -20 28 -20 3 0 21 -15
40 -32 19 -18 48 -44 66 -58 120 -94 514 -491 501 -504 -3 -3 3 -8 12 -12 9
-3 16 -12 16 -19 0 -7 4 -15 8 -17 5 -1 41 -45 79 -97 76 -101 76 -99 18 -137
-16 -10 -34 -22 -40 -27 -5 -4 -35 -25 -65 -47 -30 -22 -61 -44 -67 -50 -7 -6
-13 -8 -13 -4 0 4 -8 -2 -17 -13 -10 -11 -28 -23 -40 -27 -13 -4 -23 -12 -23
-17 0 -6 -4 -8 -9 -5 -5 4 -11 2 -13 -2 -5 -12 -166 -114 -233 -147 -22 -11
-42 -23 -45 -26 -4 -5 -36 -20 -50 -24 -3 0 -27 -12 -55 -25 -27 -13 -56 -23
-64 -21 -7 1 -10 -2 -6 -8 3 -7 -2 -11 -14 -11 -12 0 -21 -4 -21 -10 0 -5 -3
-9 -7 -8 -5 1 -25 -6 -47 -15 -21 -9 -40 -17 -42 -17 -2 0 -27 -11 -56 -24
-75 -33 -92 -39 -100 -38 -5 1 -8 -2 -8 -6 0 -5 -6 -9 -12 -10 -33 -4 -55 -10
-83 -21 -40 -17 -116 -43 -135 -46 -8 -2 -16 -4 -17 -5 -2 -2 -7 -4 -13 -5 -5
-1 -11 -3 -12 -5 -2 -1 -10 -3 -18 -5 -8 -2 -26 -7 -40 -10 -14 -4 -33 -8 -42
-8 -10 -1 -18 -5 -18 -10 0 -4 -4 -5 -10 -2 -5 3 -10 2 -10 -3 0 -5 -6 -9 -12
-10 -7 -1 -24 -3 -38 -5 -14 -1 -30 -6 -36 -9 -6 -4 -26 -10 -45 -13 -45 -9
-63 -13 -66 -15 -2 -2 -12 -4 -23 -5 -11 -1 -21 -3 -22 -5 -7 -4 -46 -11 -75
-13 -18 -1 -33 -4 -33 -7 0 -11 -505 -19 -537 -8 -13 4 -25 3 -28 -3 -4 -5
-12 -6 -18 -2 -22 14 -49 14 -41 1 6 -10 4 -10 -7 -2 -13 10 -65 15 -186 18
-29 0 -53 4 -53 7 0 3 -15 6 -32 7 -18 1 -44 4 -58 7 -14 4 -41 8 -60 11 -41
6 -75 12 -75 14 0 1 -18 3 -40 6 -22 2 -47 7 -55 11 -8 3 -26 7 -40 8 -27 2
-128 41 -146 56 -6 5 -14 6 -17 2 -4 -3 -7 0 -7 7 0 7 -3 10 -6 7 -4 -4 -19 1
-33 11 -57 37 -67 43 -93 55 -16 6 -28 15 -28 19 0 4 -7 8 -15 8 -8 0 -15 5
-15 12 0 6 -3 8 -6 5 -4 -4 -15 3 -25 15 -11 11 -19 18 -19 14 0 -7 -14 4 -51
37 -10 9 -22 17 -26 17 -5 0 -22 22 -40 48 -18 26 -50 74 -73 107 -22 33 -44
65 -49 71 -5 6 -12 20 -15 32 -4 12 -12 22 -18 22 -6 0 -8 3 -5 7 4 3 1 16 -6
27 -26 40 -68 162 -70 203 -1 12 -4 20 -8 17 -4 -2 -8 4 -8 13 0 10 -3 32 -7
48 -10 43 -13 238 -4 250 4 6 10 27 14 48 4 20 12 37 18 37 6 0 8 3 5 6 -8 8
24 64 36 64 4 0 6 4 3 9 -3 5 8 22 24 40 17 17 30 33 30 36 0 10 89 95 99 95
6 0 11 5 11 12 0 6 3 8 7 5 4 -4 -8 -22 -25 -40 -18 -18 -29 -36 -26 -40 4 -4
2 -7 -4 -7 -6 0 -19 -16 -28 -35 -9 -19 -20 -35 -24 -35 -5 0 -7 -11 -6 -24 2
-14 -3 -27 -10 -30 -9 -3 -12 -17 -10 -36 2 -16 -1 -30 -6 -30 -5 0 -6 -4 -3
-10 3 -5 1 -10 -5 -10 -7 0 -8 -6 0 -19 7 -14 6 -21 -3 -24 -9 -3 -9 -7 1 -19
8 -10 9 -18 3 -22 -11 -7 -9 -82 2 -93 12 -11 7 -24 -5 -17 -10 6 -10 4 0 -7
6 -7 12 -23 12 -36 0 -13 5 -23 11 -23 6 0 9 -9 6 -20 -3 -11 -1 -20 5 -20 6
0 8 -7 4 -15 -3 -8 -1 -15 4 -15 5 0 14 -16 21 -34 7 -19 17 -32 22 -29 5 3 8
0 5 -8 -4 -13 8 -29 69 -92 57 -58 89 -83 101 -79 7 2 12 -4 12 -14 0 -9 3
-15 6 -11 4 3 21 -1 38 -10 17 -10 34 -16 39 -15 4 1 7 -2 7 -8 0 -5 9 -10 20
-10 11 0 20 -4 20 -10 0 -5 7 -10 15 -10 8 0 15 -5 15 -11 0 -5 4 -8 9 -4 5 3
17 -2 25 -11 9 -8 16 -13 16 -10 0 3 22 -3 49 -14 27 -10 52 -16 55 -13 3 4 6
2 6 -4 0 -5 6 -10 13 -11 24 -2 47 -8 53 -15 4 -4 13 -2 21 4 10 9 13 8 13 -1
0 -7 7 -10 15 -7 8 4 17 1 21 -5 4 -7 9 -6 15 3 5 8 9 9 9 3 0 -6 26 -10 65
-10 37 1 65 -3 65 -9 0 -5 5 -3 10 5 7 11 12 12 21 3 7 -7 18 -9 28 -4 9 5 34
9 56 10 73 4 94 7 100 13 4 4 13 4 21 1 8 -3 14 0 14 7 0 6 4 8 10 5 5 -3 23
1 40 10 16 8 32 15 35 15 9 -2 99 44 113 58 8 7 17 10 22 7 4 -3 10 2 14 10 3
8 12 15 21 15 8 0 15 5 15 10 0 6 7 10 15 10 8 0 15 4 15 8 0 4 13 15 29 25
34 20 151 131 151 144 1 4 14 24 30 43 17 19 30 39 30 46 0 6 11 24 24 39 14
16 23 32 20 37 -3 4 0 8 5 8 6 0 10 3 10 8 -1 4 0 10 1 15 1 4 3 10 5 15 1 4
5 15 8 25 18 45 20 54 22 77 1 14 3 25 4 25 1 0 4 18 6 40 2 22 6 56 9 75 2
19 -1 41 -7 49 -9 11 -9 13 0 8 8 -5 11 5 10 33 -1 22 -5 40 -8 40 -3 0 -5 23
-5 50 1 28 -2 50 -7 50 -4 0 -6 4 -2 9 3 5 1 12 -5 16 -6 4 -7 12 0 24 5 11 5
22 0 27 -5 5 -10 26 -12 47 -1 20 -5 37 -8 37 -3 0 -7 17 -8 37 -2 21 -7 40
-11 43 -5 3 -7 13 -5 23 1 9 -2 17 -7 17 -5 0 -8 3 -7 8 3 11 -11 51 -35 102
-11 25 -21 47 -22 50 0 3 -17 35 -37 71 -37 65 -69 103 -225 267 -46 48 -83
90 -83 94 0 4 -6 8 -14 8 -8 0 -18 9 -21 20 -3 11 -12 20 -20 20 -7 0 -15 6
-18 14 -6 16 -139 104 -178 118 -16 5 -29 15 -29 21 0 6 -3 8 -6 4 -3 -3 -25
4 -47 16 -41 21 -54 25 -89 29 -10 1 -18 6 -18 11 0 5 -6 7 -12 5 -7 -3 -24 1
-37 8 -14 7 -28 11 -33 8 -4 -3 -8 0 -8 6 0 6 -5 8 -11 5 -5 -4 -22 -2 -37 4
-15 5 -43 12 -62 15 -19 2 -35 5 -35 6 0 3 -43 10 -72 12 -13 1 -23 5 -23 8 0
3 -17 6 -37 7 -52 2 -158 11 -158 13 0 2 -18 4 -40 6 -122 9 -143 11 -153 18
-6 3 -13 3 -16 -2 -5 -8 -69 -7 -93 2 -7 3 -13 1 -13 -4 0 -5 -13 -5 -30 0
-21 6 -30 5 -30 -3 0 -7 -3 -8 -10 -1 -5 5 -38 7 -75 4 -36 -3 -65 -2 -65 2 0
4 -10 4 -23 -1 -13 -5 -30 -5 -39 0 -9 5 -19 5 -22 1z m889 -1362 c-3 -5 1
-10 9 -10 15 0 15 -29 0 -90 -3 -14 -8 -40 -11 -57 -3 -18 -10 -33 -16 -33 -6
0 -7 -3 -4 -7 4 -3 2 -12 -5 -20 -6 -7 -8 -16 -4 -20 3 -3 -5 -21 -19 -39 -14
-18 -25 -37 -25 -43 0 -6 -3 -11 -7 -11 -5 0 -26 -17 -48 -36 -57 -51 -83 -60
-107 -34 -10 11 -16 25 -12 32 4 7 3 8 -4 4 -8 -5 -12 0 -12 13 0 12 -4 21 -8
21 -4 0 -8 12 -7 28 0 15 -4 30 -10 34 -7 5 -7 8 0 8 6 0 10 12 9 28 0 15 4
30 10 34 8 5 7 8 -2 8 -10 0 -10 4 0 23 7 12 18 25 23 29 7 5 7 8 0 8 -5 0 -1
7 9 15 11 8 17 15 12 15 -4 0 4 11 18 25 14 14 30 25 36 25 6 0 8 4 5 10 -3 6
1 7 9 4 9 -3 16 -1 16 6 0 6 5 8 10 5 6 -3 10 -2 10 4 0 5 8 10 18 10 54 3 92
8 98 14 11 10 16 8 9 -3z m208 -166 c-1 -6 2 -36 6 -67 4 -31 4 -57 0 -57 -4
0 -6 -9 -4 -20 2 -11 -1 -20 -7 -20 -6 0 -9 -3 -5 -6 14 -14 -57 -114 -81
-114 -6 0 -16 -8 -21 -17 -6 -10 -11 -15 -11 -11 0 4 -12 1 -27 -7 -15 -8 -30
-12 -35 -9 -4 3 -8 2 -8 -3 0 -4 -14 -8 -30 -9 -17 -1 -30 3 -30 9 0 5 -6 5
-13 -2 -8 -6 -17 -8 -21 -4 -4 4 -19 9 -34 11 -15 2 -28 7 -30 13 -2 5 -11 9
-20 10 -11 0 -12 2 -4 6 6 2 9 9 6 14 -3 6 5 8 20 5 30 -5 128 32 120 45 -3 5
4 9 15 9 12 0 21 4 21 9 0 5 10 13 23 16 26 8 105 90 120 125 14 33 14 36 16
66 1 19 6 24 19 22 9 -2 16 -9 15 -14z"/>
<path d="M7755 9212 c-2 -2 -11 -5 -22 -7 -10 -2 -19 -4 -20 -5 -4 -3 -12 -5
-60 -14 -24 -4 -43 -12 -43 -18 0 -6 -6 -8 -14 -5 -8 3 -16 3 -18 -1 -2 -4
-28 -18 -58 -32 -30 -13 -67 -32 -81 -42 -14 -9 -29 -15 -32 -11 -4 3 -9 -2
-13 -11 -3 -9 -10 -14 -14 -11 -5 3 -11 1 -15 -5 -4 -6 -11 -8 -16 -5 -5 4 -9
1 -9 -5 0 -6 -4 -8 -10 -5 -5 3 -10 2 -10 -3 0 -5 -19 -17 -42 -28 -24 -10
-45 -21 -48 -24 -3 -3 -21 -14 -40 -24 -19 -11 -38 -24 -42 -30 -4 -6 -11 -11
-15 -11 -15 0 -100 -90 -138 -145 -35 -52 -98 -173 -101 -195 -1 -5 -3 -13 -4
-17 -1 -5 -3 -11 -4 -15 -1 -5 -4 -13 -8 -19 -4 -6 -10 -29 -12 -50 -3 -21 -9
-40 -14 -42 -5 -1 -8 -16 -6 -32 2 -16 -1 -32 -6 -35 -5 -3 -7 -12 -4 -20 4
-8 1 -28 -4 -45 -6 -16 -8 -32 -4 -34 9 -5 7 -70 -2 -85 -4 -5 -2 -12 3 -16 7
-4 7 -15 1 -30 -5 -14 -6 -25 -2 -25 4 0 7 -16 7 -35 0 -19 -4 -35 -8 -35 -5
0 -5 -6 0 -12 9 -15 8 -173 -2 -188 -3 -5 -2 -10 4 -10 6 0 7 -11 2 -27 -5
-16 -7 -37 -5 -47 1 -11 -1 -28 -7 -37 -6 -12 -5 -20 2 -24 6 -5 4 -11 -7 -19
-12 -9 -14 -15 -5 -20 8 -5 8 -13 -1 -29 -6 -12 -11 -24 -10 -27 4 -14 -12
-80 -19 -80 -5 0 -6 -7 -3 -15 4 -8 2 -15 -3 -15 -5 0 -10 -10 -10 -22 -1 -13
-7 -24 -13 -26 -5 -2 -10 -10 -10 -19 0 -8 -11 -29 -25 -47 -14 -18 -23 -35
-21 -37 2 -2 -21 -28 -50 -56 -30 -29 -54 -51 -54 -48 0 2 -12 -7 -26 -20 -15
-14 -30 -22 -34 -20 -5 3 -10 0 -12 -5 -2 -6 -10 -12 -18 -13 -8 -2 -22 -7
-30 -12 -8 -5 -19 -10 -25 -11 -5 -1 -28 -5 -50 -9 -54 -10 -205 -12 -205 -3
0 4 -10 8 -22 8 -39 -1 -77 5 -84 13 -4 4 -15 7 -24 7 -22 0 -140 61 -140 72
0 4 -5 8 -11 8 -15 0 -96 89 -111 123 -7 15 -16 27 -20 27 -5 0 -8 6 -8 14 0
8 -9 30 -20 48 -11 19 -21 44 -23 56 -2 12 -6 25 -10 28 -12 13 -8 36 6 28 8
-5 8 -2 -2 9 -7 9 -10 17 -6 17 4 0 2 7 -5 15 -7 8 -8 15 -3 15 5 0 7 14 5 31
-4 24 -2 30 8 24 8 -5 11 -4 6 3 -11 18 19 76 54 105 44 37 76 87 74 116 -1
25 -51 74 -65 65 -5 -3 -9 -1 -9 4 0 10 -79 10 -95 1 -5 -4 -18 -5 -27 -4 -10
2 -18 -1 -18 -6 0 -6 -4 -7 -10 -4 -5 3 -10 1 -10 -5 0 -6 -4 -9 -9 -6 -5 3
-14 -1 -21 -9 -7 -8 -16 -13 -20 -10 -11 7 -110 -93 -110 -110 0 -8 -5 -15
-10 -15 -6 0 -9 -3 -8 -7 1 -5 -4 -21 -10 -36 -7 -16 -10 -33 -6 -38 3 -5 1
-9 -4 -9 -10 0 -10 0 -17 -85 -7 -81 -7 -76 0 -110 3 -16 7 -46 9 -65 1 -19 8
-45 14 -56 6 -12 9 -24 6 -27 -3 -3 -1 -13 4 -24 19 -35 35 -78 34 -85 -1 -5
2 -8 8 -8 5 0 10 -9 10 -20 0 -11 5 -20 10 -20 6 0 10 -7 10 -15 0 -8 4 -15 9
-15 5 0 12 -8 15 -18 4 -10 20 -34 37 -53 17 -19 40 -46 52 -61 12 -15 28 -28
35 -28 7 0 11 -4 8 -8 -3 -4 13 -19 35 -32 21 -14 39 -28 39 -32 0 -5 6 -8 14
-8 8 0 16 -4 18 -8 3 -8 115 -65 120 -61 2 1 14 -4 28 -11 14 -8 34 -16 45
-18 26 -5 37 -8 55 -15 8 -4 29 -8 45 -11 17 -2 30 -5 30 -6 0 -3 76 -10 135
-11 36 -1 68 -7 72 -13 6 -8 8 -8 8 0 0 10 30 14 127 18 22 0 39 4 36 9 -2 4
4 7 14 8 35 1 78 10 83 17 3 4 12 8 20 10 24 5 82 34 113 54 15 11 27 17 27
14 0 -3 9 2 19 12 37 32 50 42 61 42 5 0 9 3 8 8 -2 4 -1 7 2 7 8 0 102 99
120 125 8 12 20 28 25 34 13 14 49 69 50 76 1 3 18 38 38 79 21 41 35 76 33
79 -3 2 0 14 6 26 7 11 13 23 13 26 7 31 19 86 20 90 0 3 3 10 6 15 3 6 5 22
4 38 -1 15 1 27 6 27 4 0 6 18 5 40 -1 22 1 40 4 40 3 0 5 23 4 50 0 28 3 50
7 50 5 0 5 10 1 23 -9 27 -9 48 1 65 5 6 4 12 -2 12 -6 0 -6 11 -1 29 5 19 4
33 -3 40 -8 8 -7 11 3 11 11 0 11 3 2 12 -7 7 -8 17 -1 30 5 10 6 18 1 18 -10
0 -8 42 3 59 3 6 2 11 -3 11 -9 0 -7 64 3 80 3 6 2 10 -3 10 -10 0 -9 36 1 46
4 4 2 13 -4 21 -6 7 -7 13 -3 13 5 0 10 17 10 38 1 70 24 187 42 217 4 6 7 12
8 15 2 15 30 66 39 72 5 4 7 8 3 8 -4 0 1 15 11 34 11 18 25 44 33 57 7 13 17
27 21 30 5 3 8 8 7 10 -1 2 2 13 6 24 12 31 109 134 121 127 2 -2 13 7 24 19
10 12 19 19 19 15 0 -4 13 2 29 13 16 12 33 21 38 21 5 0 14 5 21 12 6 6 18
13 26 14 22 3 90 37 98 48 4 6 8 8 8 3 0 -4 11 0 25 9 14 9 25 13 25 10 0 -4
10 0 22 8 12 9 29 16 38 16 18 0 45 29 54 57 9 29 -31 60 -82 65 -24 2 -45 2
-47 0z"/>
<path d="M13780 9212 c-26 -4 -60 -37 -60 -57 0 -23 41 -65 65 -65 12 0 28 -7
35 -15 7 -8 16 -12 21 -9 5 3 9 0 9 -6 0 -6 5 -8 10 -5 6 3 10 1 10 -4 0 -6 3
-10 8 -9 4 0 24 -6 44 -16 21 -9 41 -16 44 -15 4 0 10 -3 13 -8 8 -11 99 -56
103 -52 2 2 14 -6 28 -18 13 -13 28 -23 32 -23 11 0 130 -122 124 -127 -2 -3
7 -21 20 -40 13 -20 24 -42 24 -49 0 -8 4 -14 9 -14 5 0 12 -11 15 -25 4 -14
11 -25 17 -25 6 0 8 -4 4 -9 -3 -5 0 -15 7 -23 7 -7 14 -20 16 -28 2 -8 10
-28 18 -44 8 -16 14 -35 14 -43 0 -7 3 -13 8 -13 4 0 8 -10 8 -22 5 -75 8 -97
13 -94 3 2 6 -11 6 -30 0 -19 -4 -34 -8 -34 -5 0 -5 -6 0 -12 4 -7 9 -139 11
-293 3 -315 4 -325 15 -325 4 0 3 -8 -2 -18 -6 -11 -6 -23 -2 -28 5 -5 12 -27
15 -49 8 -59 34 -155 53 -195 9 -19 18 -44 20 -54 2 -11 11 -28 20 -38 9 -10
13 -18 9 -18 -4 0 7 -20 24 -44 16 -25 30 -47 30 -50 0 -20 159 -181 220 -222
53 -36 170 -96 170 -88 0 4 7 1 15 -6 8 -7 15 -9 15 -5 0 4 6 2 14 -4 7 -6 30
-12 50 -13 20 -1 36 -4 36 -7 0 -6 28 -9 133 -14 26 -2 47 1 47 7 0 5 7 1 16
-10 8 -10 13 -14 10 -8 -4 8 6 12 27 12 60 1 164 17 211 32 15 6 32 7 37 4 5
-3 9 0 9 5 0 6 6 11 14 11 8 0 27 5 43 12 15 6 31 11 36 10 4 -1 7 3 7 10 0 6
3 8 6 5 4 -4 19 2 34 13 15 11 30 17 34 13 3 -3 6 -1 6 6 0 7 5 9 10 6 6 -3
10 -2 10 3 0 5 15 17 34 27 19 11 33 23 30 27 -3 4 1 8 8 8 8 0 20 9 28 20 8
11 21 20 29 20 8 0 12 3 8 6 -3 4 11 24 32 46 21 21 56 67 77 101 21 34 41 63
45 65 4 2 5 10 2 18 -3 8 0 14 6 14 6 0 11 9 11 20 0 11 5 20 11 20 5 0 8 3 5
8 -2 4 2 32 10 62 13 49 18 80 28 160 2 14 -1 31 -7 38 -6 7 -6 12 0 12 11 0
13 30 4 45 -4 6 -8 26 -10 45 -2 19 -7 40 -12 46 -5 6 -6 14 -2 17 3 4 1 7 -5
7 -6 0 -9 6 -6 13 2 7 -5 23 -16 35 -11 12 -18 22 -15 22 7 0 -14 26 -39 48
-10 9 -28 25 -38 35 -11 10 -28 20 -39 22 -10 2 -25 7 -32 12 -50 32 -164 38
-192 9 -9 -9 -21 -16 -26 -16 -6 0 -7 -4 -4 -10 3 -5 1 -10 -4 -10 -14 0 -14
-47 -1 -55 6 -4 8 -11 5 -16 -4 -5 -1 -9 5 -9 6 0 8 -4 5 -10 -3 -5 -2 -10 4
-10 5 0 28 -18 50 -39 45 -43 80 -138 57 -153 -7 -5 -8 -8 0 -8 6 0 10 -10 8
-22 -1 -13 -3 -23 -4 -23 -1 0 -3 -15 -4 -33 -4 -36 -75 -192 -88 -192 -4 0
-8 -5 -8 -12 0 -10 -77 -89 -122 -124 -17 -13 -51 -28 -60 -26 -5 1 -8 -2 -8
-7 0 -9 -56 -25 -77 -22 -7 1 -13 -3 -13 -9 0 -5 -3 -9 -7 -8 -5 1 -27 -2 -50
-6 -74 -14 -173 -15 -173 -2 0 7 -4 6 -9 -3 -6 -9 -14 -10 -27 -3 -11 5 -27 8
-36 7 -10 -2 -18 0 -18 5 0 4 -11 6 -25 5 -14 -2 -23 1 -19 6 3 5 -4 9 -14 9
-25 0 -162 90 -162 106 0 7 -9 16 -20 19 -11 3 -20 13 -20 21 0 8 -4 14 -10
14 -5 0 -10 7 -10 15 0 8 -4 15 -10 15 -5 0 -10 6 -10 14 0 7 -7 19 -15 26 -8
7 -13 16 -10 20 3 5 2 10 -3 12 -12 5 -53 119 -46 129 3 5 1 9 -5 9 -5 0 -8 8
-6 18 1 9 0 22 -4 27 -9 16 -15 68 -26 218 -5 59 -3 77 7 78 7 0 4 4 -7 9 -11
5 -15 9 -9 9 7 1 9 39 8 111 -2 79 0 109 8 104 7 -5 8 -2 2 7 -5 8 -9 48 -11
89 -2 92 -7 132 -17 149 -4 7 -6 15 -3 17 3 3 1 20 -4 37 -5 18 -12 45 -15 62
-3 16 -9 34 -14 41 -6 6 -7 14 -3 17 3 4 1 7 -6 7 -7 0 -9 4 -6 10 3 5 -1 20
-10 33 -8 13 -13 26 -10 29 3 3 -1 11 -10 18 -8 7 -15 21 -15 30 0 10 -4 20
-8 22 -12 5 -57 82 -54 91 1 5 -2 6 -8 2 -5 -3 -10 -2 -10 2 0 8 -73 86 -102
108 -19 15 -117 75 -123 75 -3 0 -24 12 -48 27 -23 14 -43 26 -44 25 -7 -4
-93 43 -93 51 0 4 -4 5 -10 2 -5 -3 -10 -1 -10 4 0 6 -3 10 -7 10 -14 -3 -133
54 -133 63 0 5 -4 6 -10 3 -5 -3 -16 -3 -22 2 -7 4 -22 9 -33 11 -37 7 -40 8
-54 16 -11 7 -12 6 -6 -5 7 -11 6 -12 -6 -3 -16 13 -63 21 -99 16z"/>
<path d="M10630 8040 c0 -3 -17 -6 -38 -7 -47 -3 -64 -7 -79 -16 -7 -5 -18 -5
-23 -2 -6 4 -17 1 -25 -5 -8 -7 -15 -9 -15 -5 0 4 -6 3 -12 -2 -7 -6 -21 -9
-30 -8 -10 2 -18 -1 -18 -5 0 -5 -18 -14 -40 -20 -22 -6 -40 -15 -40 -20 0 -6
-3 -9 -7 -8 -13 4 -73 -24 -73 -34 0 -5 -4 -6 -10 -3 -5 3 -10 2 -10 -3 0 -4
-17 -18 -37 -30 -40 -22 -212 -182 -197 -182 5 0 -2 -7 -14 -16 -12 -8 -22
-21 -22 -28 0 -8 -7 -17 -16 -20 -8 -3 -13 -10 -10 -15 3 -5 -1 -11 -9 -15 -8
-3 -15 -12 -15 -21 0 -8 -5 -15 -11 -15 -5 0 -7 -4 -4 -10 3 -5 1 -10 -4 -10
-6 0 -11 -7 -11 -15 0 -8 -4 -15 -10 -15 -5 0 -9 -3 -8 -7 2 -11 -25 -67 -37
-75 -5 -4 -6 -8 -1 -8 5 0 4 -6 -2 -12 -6 -7 -11 -17 -13 -23 -2 -11 -14 -41
-35 -90 -7 -16 -16 -43 -20 -60 -4 -16 -11 -36 -17 -42 -5 -7 -6 -13 -2 -13 4
0 2 -7 -5 -15 -7 -8 -9 -15 -5 -15 4 0 0 -12 -10 -26 -9 -15 -12 -23 -6 -20 6
4 11 3 11 -3 0 -5 -4 -12 -9 -16 -6 -3 -8 -14 -6 -25 2 -11 0 -20 -4 -20 -5 0
-7 -11 -6 -25 2 -14 -2 -25 -8 -25 -8 0 -8 -3 1 -12 6 -6 8 -18 3 -27 -4 -9
-7 -27 -6 -41 0 -14 -4 -28 -10 -32 -7 -5 -6 -8 1 -8 7 0 10 -12 7 -32 -3 -18
-4 -42 -3 -53 0 -11 2 -31 3 -45 1 -14 -2 -31 -7 -37 -5 -8 -4 -13 2 -13 6 0
10 -17 10 -37 0 -21 1 -40 2 -43 1 -3 3 -21 4 -41 2 -20 6 -41 10 -47 4 -7 1
-12 -6 -12 -10 0 -10 -2 -1 -8 7 -4 14 -25 15 -45 2 -20 7 -37 12 -37 4 0 6
-7 2 -15 -3 -8 -1 -15 4 -15 5 0 7 -9 5 -20 -2 -11 0 -20 5 -20 4 0 14 -22 21
-50 7 -27 16 -50 20 -50 4 0 10 -13 14 -30 4 -16 11 -30 15 -30 5 0 7 -7 4
-15 -4 -8 -1 -15 5 -15 6 0 11 -7 11 -15 0 -8 5 -15 10 -15 6 0 10 -3 9 -7 -2
-16 14 -53 23 -53 5 0 7 -4 4 -9 -3 -5 1 -12 10 -15 9 -4 14 -9 10 -13 -3 -3
1 -15 11 -25 9 -10 13 -18 9 -18 -4 0 -1 -6 6 -14 8 -7 33 -43 57 -80 24 -36
48 -66 53 -66 5 0 7 -4 4 -9 -4 -5 -3 -11 2 -13 4 -1 24 -24 44 -50 19 -26 38
-45 42 -41 3 3 6 -1 6 -11 0 -9 5 -14 10 -11 6 3 10 -1 10 -9 0 -8 9 -18 20
-21 11 -3 20 -13 20 -21 0 -8 3 -14 8 -14 12 -1 92 -78 92 -89 0 -6 5 -11 11
-11 12 0 289 -280 289 -292 0 -5 5 -6 10 -3 6 3 10 -2 10 -11 0 -10 2 -15 5
-12 7 7 75 -58 75 -72 0 -5 5 -10 11 -10 12 0 69 -60 69 -74 0 -5 3 -6 6 -3 4
3 20 -13 37 -36 17 -23 33 -44 36 -47 15 -13 61 -80 61 -89 0 -6 5 -11 11 -11
5 0 7 -4 4 -10 -3 -5 -3 -10 2 -10 15 0 135 -249 127 -262 -3 -4 0 -8 6 -8 6
0 9 -4 5 -9 -3 -5 -1 -12 4 -16 6 -3 8 -12 4 -20 -3 -8 -1 -15 4 -15 5 0 9 -8
10 -17 2 -43 8 -73 13 -73 3 0 6 -10 7 -22 2 -36 11 -87 18 -98 3 -5 0 -10 -7
-10 -10 0 -10 -2 -1 -8 7 -4 14 -33 15 -65 2 -31 5 -57 9 -57 3 0 6 -7 6 -15
0 -8 -4 -15 -9 -15 -5 0 -5 -8 0 -17 14 -29 6 -183 -12 -243 -10 -30 -18 -59
-20 -65 -2 -5 -8 -23 -14 -38 -7 -16 -12 -31 -12 -35 0 -4 -9 -24 -20 -45 -11
-20 -20 -39 -20 -42 0 -3 0 -10 0 -16 0 -5 -4 -8 -8 -5 -5 3 -9 -1 -10 -9 -1
-8 -3 -22 -4 -30 -1 -8 -6 -15 -11 -15 -6 0 -8 -3 -5 -6 8 -7 -160 -335 -212
-414 -6 -8 -13 -22 -17 -30 -4 -8 -16 -31 -28 -50 -12 -19 -23 -39 -24 -45 -1
-5 -10 -18 -18 -27 -9 -10 -12 -18 -7 -18 5 0 1 -5 -9 -11 -9 -6 -15 -14 -12
-20 4 -5 1 -9 -5 -9 -6 0 -9 -4 -6 -9 3 -4 -3 -19 -14 -31 -11 -13 -20 -26
-20 -30 0 -4 -8 -25 -17 -46 -16 -37 -19 -48 -26 -77 -1 -6 -6 -17 -10 -24 -4
-6 -8 -23 -9 -37 -1 -14 -6 -26 -10 -26 -4 0 -5 -9 -3 -20 2 -11 -1 -20 -7
-20 -5 0 -8 -7 -4 -15 3 -8 0 -15 -6 -15 -6 0 -9 -3 -5 -6 3 -4 0 -19 -9 -35
-8 -16 -12 -29 -9 -29 3 0 0 -10 -7 -22 -7 -13 -11 -26 -10 -30 1 -5 -3 -8 -9
-8 -5 0 -7 -5 -4 -11 4 -5 2 -22 -4 -37 -6 -15 -12 -36 -14 -47 -2 -11 -7 -27
-11 -36 -4 -9 -6 -20 -5 -25 1 -5 0 -11 -1 -14 -7 -20 -21 -106 -23 -147 -1
-18 -4 -33 -8 -33 -3 0 -5 -16 -4 -35 1 -19 -1 -35 -4 -35 -3 0 -5 -27 -4 -60
1 -40 -2 -58 -10 -53 -6 4 -7 1 -2 -8 13 -20 13 -49 1 -49 -7 0 -8 -3 -1 -8 6
-4 11 -36 12 -71 1 -35 6 -68 11 -73 7 -7 7 -19 2 -34 -5 -13 -6 -26 -1 -28 5
-3 11 -25 14 -48 3 -24 9 -61 13 -83 3 -22 7 -49 8 -60 0 -11 6 -26 13 -33 7
-7 10 -19 7 -27 -5 -12 5 -55 23 -105 3 -8 7 -22 8 -30 7 -35 14 -60 24 -78 6
-11 7 -22 4 -26 -3 -3 -2 -6 3 -6 5 0 16 -20 23 -45 7 -25 18 -45 23 -45 6 0
8 -7 4 -15 -3 -8 -2 -15 2 -15 4 0 18 -21 32 -47 14 -27 30 -54 37 -61 7 -7
13 -20 13 -28 0 -8 4 -13 8 -10 5 3 15 -7 23 -22 8 -15 20 -33 27 -40 7 -8 25
-30 40 -50 15 -20 34 -44 42 -53 36 -42 45 -54 42 -61 -1 -5 2 -7 6 -6 4 2 29
-21 55 -50 26 -29 47 -50 47 -46 0 10 90 -89 90 -99 0 -5 5 -5 10 -2 6 3 10 1
10 -6 0 -6 10 -21 23 -33 50 -45 127 -112 163 -141 20 -16 48 -40 60 -51 13
-12 25 -19 28 -16 3 3 6 0 6 -6 0 -7 7 -12 15 -12 9 0 18 -6 21 -14 6 -16 52
-16 58 0 2 6 -18 31 -46 55 -96 85 -137 127 -131 133 4 3 -1 6 -10 6 -10 0
-17 4 -17 8 0 8 -38 54 -113 134 -15 17 -35 43 -44 59 -10 16 -21 29 -25 29
-4 0 -8 6 -8 13 0 7 -8 22 -18 33 -10 10 -25 34 -32 52 -8 17 -18 32 -21 32
-7 0 -22 40 -20 53 1 4 -4 7 -9 7 -6 0 -22 26 -37 58 -15 31 -32 60 -38 64 -5
4 -7 8 -2 8 4 0 1 13 -8 30 -8 16 -15 31 -14 32 0 2 -5 17 -11 33 -7 17 -13
35 -14 42 -1 7 -5 16 -9 19 -4 4 -7 16 -7 26 0 10 -4 18 -8 18 -5 0 -9 6 -10
13 -1 14 -10 52 -12 52 -2 0 -11 38 -12 53 -1 6 -5 12 -10 12 -4 0 -8 5 -8 11
0 5 6 7 13 3 6 -4 5 1 -4 12 -8 10 -14 29 -13 42 0 12 -3 22 -8 22 -5 0 -8 6
-5 13 2 6 1 19 -3 27 -8 16 -19 71 -25 127 -2 18 -6 37 -10 42 -14 24 -29 401
-15 401 3 0 5 16 4 35 -1 19 2 54 8 77 5 24 11 54 13 68 2 14 8 37 14 53 6 15
9 27 6 27 -2 0 3 17 12 37 8 21 15 39 14 41 0 1 -1 3 0 5 1 3 9 50 11 65 1 6
5 12 10 12 4 0 8 7 8 15 0 8 9 24 20 35 11 11 20 23 20 26 0 4 11 17 26 30 14
13 21 24 17 24 -4 0 -3 4 2 8 6 4 28 29 49 56 22 26 50 59 63 72 12 13 23 28
23 34 0 5 4 10 9 10 5 0 13 9 16 20 3 11 13 20 21 20 8 0 14 3 14 8 0 8 29 42
91 110 21 23 39 45 39 49 0 3 8 13 18 22 9 9 37 41 62 71 24 30 50 62 58 70 7
8 38 49 67 90 30 41 59 80 65 87 5 7 10 17 10 23 0 5 5 10 10 10 6 0 10 7 10
15 0 8 3 15 8 15 4 0 16 18 26 40 11 22 23 40 28 40 4 0 7 3 6 8 -2 9 43 105
52 112 4 3 6 13 4 22 -1 10 2 20 7 24 5 3 9 14 9 24 0 10 6 21 13 23 8 4 8 6
0 6 -13 1 -5 41 8 41 5 0 6 7 3 15 -4 8 -3 23 1 33 13 27 15 59 15 187 0 107
-3 170 -9 170 -2 0 -5 27 -7 60 -3 32 -10 65 -16 72 -8 10 -7 13 3 13 9 0 10
3 3 8 -6 4 -11 14 -12 22 -1 18 -7 39 -15 60 -4 8 -8 25 -10 37 -2 12 -6 26
-10 29 -4 4 -7 18 -7 31 0 13 -6 23 -12 23 -9 0 -8 4 2 10 8 5 10 10 4 10 -7
0 -15 11 -18 25 -3 13 -11 37 -18 52 -6 15 -13 37 -15 48 -2 10 -7 22 -11 25
-4 3 -7 12 -7 20 1 8 -8 28 -19 44 -11 16 -15 27 -9 23 6 -4 2 10 -8 30 -10
20 -16 40 -13 44 3 5 1 9 -4 9 -9 0 -25 37 -23 53 1 4 -4 7 -9 7 -6 0 -9 3 -8
8 3 14 -14 62 -23 62 -5 0 -6 7 -3 15 4 8 1 15 -6 15 -6 0 -8 5 -5 10 3 6 1
10 -5 10 -6 0 -8 5 -5 10 3 6 1 10 -5 10 -6 0 -8 5 -5 10 3 6 1 10 -4 10 -6 0
-11 9 -11 20 0 11 -4 20 -9 20 -10 0 -23 30 -18 41 1 3 -10 17 -25 31 -16 14
-28 29 -28 32 0 4 -18 25 -40 47 -22 22 -40 42 -40 44 0 2 -13 19 -30 37 -16
18 -30 38 -30 46 0 7 -4 10 -10 7 -5 -3 -10 -1 -10 4 0 6 -8 19 -17 30 -10 10
-45 49 -78 86 -78 88 -85 95 -95 95 -5 0 -12 9 -15 20 -3 11 -13 20 -21 20 -8
0 -14 6 -14 13 0 6 -13 21 -29 32 -16 10 -28 22 -26 25 2 3 -10 16 -26 29 -16
13 -26 28 -22 35 3 6 3 8 -1 4 -9 -7 -136 116 -136 132 0 6 -4 8 -10 5 -5 -3
-10 1 -10 9 0 9 -8 16 -17 16 -9 0 -14 3 -11 6 3 3 -20 32 -53 65 -32 32 -56
59 -52 59 3 0 -6 11 -21 25 -14 13 -26 26 -26 29 0 3 -16 22 -35 43 -19 20
-32 40 -29 45 3 4 -2 8 -11 8 -9 0 -14 4 -11 8 3 5 -4 18 -14 30 -11 12 -20
25 -20 31 0 5 -3 11 -7 13 -10 4 -42 57 -50 81 -3 9 -9 17 -14 17 -5 0 -9 9
-9 20 0 11 -4 20 -9 20 -5 0 -12 14 -16 30 -4 17 -11 30 -16 30 -5 0 -8 3 -7
8 2 11 -12 65 -23 84 -5 10 -9 29 -9 42 0 14 -4 27 -9 30 -5 4 -8 17 -6 31 1
14 -1 25 -4 25 -4 0 -6 14 -5 30 1 17 -1 30 -4 30 -4 0 -7 45 -7 100 0 55 4
100 8 100 5 0 5 10 2 21 -5 14 -2 25 6 30 10 6 10 9 2 9 -9 0 -10 7 -2 27 5
14 7 33 4 42 -3 8 -3 12 2 8 4 -4 13 18 20 50 14 63 15 65 31 106 7 16 12 32
12 37 0 9 31 71 40 80 3 3 14 22 25 43 11 21 32 52 48 68 15 17 27 32 27 35 0
2 8 12 18 23 9 10 32 37 51 59 18 23 42 44 52 47 11 4 18 9 16 13 -2 4 4 15
15 25 10 9 18 15 18 11 0 -3 15 6 33 20 19 15 39 26 44 26 6 0 16 7 23 15 7 9
18 14 23 12 6 -2 27 4 46 14 20 10 37 13 39 8 2 -5 12 -4 24 2 11 6 26 8 34 5
8 -3 14 -2 14 3 0 11 162 3 174 -9 6 -6 22 -10 37 -10 15 0 29 -5 31 -11 2 -5
10 -11 18 -13 28 -5 120 -50 120 -58 0 -4 6 -8 14 -8 7 0 25 -11 40 -25 15
-14 30 -25 34 -25 4 0 23 -22 42 -48 19 -26 37 -49 40 -52 9 -9 34 -65 32 -72
-1 -5 3 -8 8 -8 6 0 10 -5 10 -10 0 -6 7 -27 17 -48 9 -20 15 -43 14 -49 -1
-7 2 -13 7 -13 5 0 9 -6 9 -12 0 -7 4 -22 9 -32 6 -15 4 -17 -7 -11 -12 7 -11
6 1 -9 8 -10 15 -28 15 -40 0 -11 3 -25 7 -31 11 -18 7 -170 -5 -177 -9 -6 -9
-8 0 -8 9 0 10 -7 3 -26 -6 -14 -8 -30 -4 -35 3 -5 0 -9 -6 -9 -6 0 -9 -4 -6
-8 2 -4 -6 -29 -19 -55 -14 -26 -21 -47 -18 -47 4 0 -2 -7 -13 -15 -10 -8 -15
-15 -11 -15 5 0 -3 -14 -17 -31 -14 -17 -26 -34 -26 -39 0 -5 -9 -12 -20 -15
-11 -3 -20 -10 -20 -15 0 -8 -45 -56 -87 -91 -19 -15 -54 -32 -62 -29 -2 1 -8
-5 -13 -14 -5 -9 -13 -14 -19 -11 -5 4 -9 1 -9 -4 0 -6 -6 -11 -12 -11 -7 0
-26 -7 -42 -15 -50 -26 -118 -26 -170 1 -26 13 -57 34 -70 46 -36 34 -117 159
-123 190 -3 16 -8 28 -12 28 -4 0 -8 8 -9 18 -3 32 -7 47 -16 61 -7 11 -6 12
5 6 12 -8 12 -6 1 8 -10 11 -12 38 -9 94 3 43 6 78 7 78 1 0 4 16 7 35 2 19
10 38 16 42 7 4 8 8 4 8 -15 0 27 60 42 60 8 0 11 3 8 7 -6 5 30 37 43 38 3 0
10 3 15 6 6 4 18 5 28 4 9 -2 17 1 17 7 0 6 6 5 15 -2 8 -7 15 -8 15 -3 0 6
15 10 33 9 17 -1 38 5 46 12 12 11 11 16 -2 30 -17 17 -51 22 -132 20 -114 -2
-135 -3 -135 -10 0 -5 -8 -8 -17 -8 -10 0 -34 -10 -53 -21 -43 -27 -130 -117
-130 -135 0 -8 -4 -14 -10 -14 -5 0 -10 -9 -10 -19 0 -11 -5 -23 -11 -26 -5
-4 -8 -12 -6 -18 2 -7 0 -21 -6 -32 -11 -21 -17 -185 -7 -185 4 0 6 -14 5 -30
-1 -17 2 -33 7 -36 4 -3 6 -10 3 -15 -4 -5 -2 -9 4 -9 6 0 8 -6 5 -13 -2 -7 2
-26 10 -42 8 -16 13 -32 10 -37 -3 -4 0 -8 5 -8 6 0 10 -3 9 -7 -2 -13 20 -61
32 -68 5 -3 8 -11 5 -16 -4 -5 -1 -9 6 -9 7 0 9 -3 6 -6 -4 -4 3 -15 15 -25
11 -11 18 -19 14 -19 -14 0 75 -102 125 -145 29 -24 81 -59 92 -61 4 -1 10 -3
15 -4 4 -1 10 -2 15 -1 4 0 7 -4 7 -10 0 -5 4 -8 9 -4 5 3 12 1 15 -3 3 -5 19
-8 36 -7 16 1 30 -1 30 -5 0 -16 185 4 208 22 6 6 12 8 12 4 0 -4 15 1 33 11
17 9 34 17 37 18 3 0 11 4 18 8 6 5 12 5 12 0 0 -4 5 0 11 10 6 9 14 15 20 12
5 -4 9 -1 9 5 0 6 4 9 8 6 5 -3 18 4 30 14 12 11 26 20 32 20 6 0 13 7 16 15
4 8 10 12 15 9 5 -3 12 2 15 10 3 9 11 16 17 16 6 0 40 30 74 68 91 96 90 95
97 120 4 12 12 22 17 22 5 0 9 7 9 15 0 8 4 15 8 15 5 0 9 6 10 13 1 15 35
110 42 117 3 3 6 10 7 16 2 11 7 37 19 92 3 15 6 36 7 47 0 11 6 23 12 27 6 5
5 8 -3 8 -8 0 -10 5 -5 13 4 6 8 44 10 82 1 39 2 72 3 75 1 3 1 19 0 35 -1 17
-3 41 -4 55 -1 14 -5 31 -9 38 -5 7 -3 12 4 12 9 0 9 4 -1 15 -6 8 -9 19 -5
25 3 5 2 10 -2 10 -5 0 -8 14 -7 30 1 17 -2 30 -8 30 -5 0 -8 8 -6 18 1 9 -1
23 -5 30 -5 6 -5 12 -1 12 3 0 2 6 -3 13 -6 6 -16 30 -23 52 -7 22 -20 48 -29
59 -9 10 -14 19 -11 20 7 2 -33 66 -42 66 -4 0 -8 7 -8 15 0 8 -4 15 -10 15
-5 0 -10 7 -10 16 0 8 -4 12 -10 9 -5 -3 -10 -1 -10 6 0 19 -150 159 -170 159
-6 0 -10 3 -10 8 0 4 -13 13 -29 20 -16 7 -39 22 -51 32 -13 11 -29 20 -37 20
-7 0 -13 4 -13 10 0 5 -7 7 -15 4 -8 -4 -15 -1 -15 6 0 6 -6 10 -12 8 -7 -3
-24 1 -37 8 -14 7 -28 11 -33 8 -4 -3 -8 0 -8 7 0 7 -2 10 -6 7 -3 -3 -22 -1
-42 4 -48 12 -86 18 -147 22 -27 2 -50 5 -50 6 0 1 -17 3 -37 4 -21 1 -38 -3
-38 -9 0 -6 -3 -7 -8 0 -7 10 -102 15 -102 5z"/>
</g>
</svg>
